<?xml version="1.0" encoding="UTF-8"?>
<svg id="Layer_1" data-name="Layer 1" xmlns="http://www.w3.org/2000/svg" version="1.1" viewBox="0 0 1714.96 2409.45">
  <defs>
    <style>
      .cls-1, .cls-2 {
        stroke-width: 0px;
      }

      .cls-1, .cls-3 {
        fill: #231f20;
      }

      .cls-2 {
        fill: #c77161;
      }

      .cls-3 {
        stroke: #231f20;
        stroke-miterlimit: 10;
        stroke-width: 4.21px;
      }
    </style>
  </defs>
  <g>
    <path class="cls-2" d="M1013.45,804.39c4.39,1.26,9.68-3.34,13.88-8.1-5.12-5.68-8.14-13.21-8.37-20.86-.55,1.27-3.57-1.05-4.87-.58-10.03-9.91-25.93-11.75-39.59-8.26-13.66,3.49-25.67,11.48-37.43,19.24-2.34,1.55-4.73,3.11-7.42,3.92-3.75,1.13-5.84,4.04-9.75,3.78-11.92-.8-50.04,5.02-56.02,6.63-18.89,5.1-91.03,46.91-128.32,90.38-5.32,6.2-5.07,17.24-1.29,24.49l17.64,33.78c7.74,1.19,18.13-5.12,17.69-7.16-.25-1.14-3.71-.33-6.45-1.74-9.82-5.06-14.03-40.5,5.62-52.31,12.7-7.63,30.46-2.44,39.68,6.84,8.96,9.01,11.02,23.34,11.02,23.34l146.04-84.09s-10.47-11.46-11.54-24.25c-.79-9.43,2.46-24.23,15.33-31.24,9.54-5.19,22.64-5.17,30.41,1.27,9.83,8.15,6.73,22.9,13.75,24.91Z"/>
    <path class="cls-1" d="M1012.78,806.8c6.55,1.63,12.39-4.33,16.32-8.74.94-1.05.94-2.48,0-3.54-4.67-5.26-7.38-12.07-7.64-19.09-.09-2.47-3.34-3.41-4.66-1.26l1.77-.8-.26-.06c-.12-.09-.41-.13-.56-.17-.45-.15-.89-.34-1.34-.49-.99-.32-1.98-.46-3-.21l2.43.64c-8.46-8.25-20.59-11.33-32.16-10.49-13.09.94-25.12,6.75-36.15,13.51-2.95,1.81-5.85,3.69-8.73,5.58-2.73,1.8-5.45,3.9-8.48,5.17-1.48.62-3,1.02-4.43,1.79-1.2.64-2.34,1.49-3.61,2.01-1.57.63-3.32.31-4.97.31-8.22,0-16.49,1.07-24.64,2.09s-16.48,2.2-24.65,3.7c-4.66.85-8.92,2.26-13.27,4.13-15.65,6.72-30.46,15.69-44.75,24.88-19.1,12.29-37.54,25.81-54.45,41-4.14,3.72-8.18,7.54-12.08,11.5s-7.73,7.62-10.82,11.94c-5.44,7.6-4.43,18.67-.31,26.58,5.5,10.56,11.02,21.11,16.54,31.67.26.5.49,1.02.78,1.5,1.1,1.81,3.79,1.61,5.67,1.45,4.86-.42,9.87-2.27,13.77-5.23,1.38-1.05,2.94-2.43,2.99-4.3.08-3.19-3.32-3.24-5.58-3.55-.89-.12-1.77-.32-2.54-.79-.14-.08-.85-.64-.31-.19-.23-.19-.45-.39-.66-.59-.22-.22-.42-.46-.64-.69-.46-.5.05.14-.34-.44s-.79-1.2-1.13-1.83c-.83-1.54-1.13-2.33-1.67-4.04s-.96-3.49-1.26-5.28c-.61-3.6-.73-7.8-.39-11.67.69-7.81,3.61-15.92,9.78-21.15,8.03-6.8,20-6.31,29.16-2.24,4.8,2.13,9.22,5.23,12.45,9.41,2.98,3.86,5.05,8.43,6.49,13.07.66,2.14,1.26,4.34,1.58,6.56.24,1.64,2.42,2.22,3.67,1.49,4.87-2.8,9.74-5.61,14.61-8.41,11.6-6.68,23.2-13.36,34.81-20.04,14.07-8.1,28.14-16.2,42.2-24.3,12.16-7,24.32-14,36.47-21,5.88-3.39,11.92-6.6,17.69-10.19.08-.05.17-.1.26-.15,1.45-.83,1.58-2.75.51-3.93-1.45-1.6-2.22-2.67-3.46-4.48-2.47-3.6-4.61-7.49-5.97-11.65-2.4-7.34-1.82-15.57,1.25-22.64,3.66-8.41,10.95-14.06,19.95-15.74s18.7.82,23.18,9.1c2.02,3.73,2.77,7.92,3.99,11.94,1.08,3.57,2.75,7.13,6.58,8.33,3.08.96,4.4-3.87,1.33-4.82-.57-.18-.66-.21-1.04-.61-.11-.11-.58-.69-.36-.38-.24-.33-.45-.69-.64-1.05-.61-1.17-1.1-2.89-1.53-4.45-1.14-4.16-2.19-8.38-4.39-12.14-5.29-9.04-16.07-12.37-26.05-11.11-10.26,1.3-19.36,7.02-24.28,16.22-4.01,7.49-5.52,16.66-3.8,25.01s6.19,15.96,11.69,22.01l.51-3.93c-4.87,2.8-9.74,5.61-14.61,8.41-11.6,6.68-23.2,13.36-34.81,20.04-14.07,8.1-28.14,16.2-42.2,24.3-12.16,7-24.32,14-36.47,21l-11.99,6.9c-1.88,1.08-3.92,2.05-5.7,3.28-.08.06-.17.1-.26.15l3.67,1.49c-1.19-8.16-4.83-16.59-10.18-22.84-7.59-8.86-20.56-13.9-32.14-12.69-10.69,1.12-19.39,7.65-23.62,17.49-3.63,8.44-4.32,18-2.73,26.99.71,4.02,1.95,8.19,4.22,11.62.99,1.49,2.15,2.83,3.62,3.86,1.05.74,2.31,1.22,3.56,1.47.89.18,1.8.26,2.7.35.2.02.51.09.7.07.32-.04.03.14-.24-.19l-.64-1.1c-.19-.48.05-.82.16-1.08-.05.14-.39.5,0,.05-.23.27-.88.86-.9.88-1.2.96-2.6,1.7-3.98,2.35-2.92,1.38-6.55,2.48-9.82,2.04l1.49,1.15c-3.48-6.66-6.96-13.32-10.43-19.98l-5.99-11.47c-1.85-3.55-3.33-7.09-3.6-11.17-.24-3.57.18-7.36,1.91-10.55s4.52-5.69,6.91-8.25c5.27-5.64,10.83-10.99,16.58-16.13,11.97-10.72,24.72-20.54,37.9-29.73,11.88-8.29,24.12-16.08,36.73-23.23,5.02-2.85,10.11-5.6,15.29-8.15,2.11-1.04,4.23-2.05,6.38-3.01.45-.2.91-.4,1.36-.6.24-.1.47-.2.71-.3-.43.18.14-.06.29-.12.85-.35,1.7-.69,2.57-1.01,2.75-1.03,5.51-1.69,8.39-2.22,5.31-.98,10.65-1.79,16-2.55,6.35-.9,12.71-1.7,19.09-2.32,5.03-.49,10.14-.99,15.19-.76,1.89.08,3.57-.18,5.31-.95s3.12-1.88,4.79-2.58c2.3-.97,4.53-1.72,6.67-3.04,1.99-1.23,3.93-2.56,5.89-3.85,7.85-5.15,15.88-10.28,24.63-13.77,7.94-3.17,16.3-4.9,24.86-4.16,3.91.34,7.84,1.25,11.46,2.77s6.46,3.7,9.37,6.21c.64.55,1.28.73,2.1.69.69-.03-.32-.24.24.03s1.31.48,1.92.67c1.72.55,3.53.34,4.54-1.31l-4.66-1.26c.31,8.39,3.53,16.35,9.1,22.62v-3.54c-1.81,2.03-3.73,4.08-5.98,5.65-1.55,1.08-3.51,2.3-5.47,1.81-3.12-.78-4.45,4.04-1.33,4.82Z"/>
  </g>
  <path class="cls-1" d="M915.67,805.69c-28.52,14.63-62.85,33.37-92,46.68-11.39,5.2-22.87,10.31-34.9,13.8,10.5-16.52,28.09-26.94,45.03-36.75,12.05-6.98,24.19-14,37.26-18.79,4.71-1.73,29.8-6.32,44.61-4.94Z"/>
  <path class="cls-3" d="M997.35,817.77c-8.24,8.78-24.29,8.01-32.11-1.33-11.85-18.32,12.26-43.31,29.44-28.99,8.89,6.78,9.06,22.1,2.67,30.32Z"/>
  <path class="cls-3" d="M808.19,922.98c-3.57,13.51-20.38,21.58-33.51,16.37-22.21-12.15-11.4-50.97,14.05-45.84,12.82,2.01,21.45,17.56,19.46,29.48Z"/>
</svg>