<?xml version="1.0" encoding="UTF-8"?>
<svg id="Layer_1" data-name="Layer 1" xmlns="http://www.w3.org/2000/svg" version="1.1" viewBox="0 0 1714.96 2409.45">
  <defs>
    <style>
      .cls-1 {
        fill: #00b1dc;
      }

      .cls-1, .cls-2 {
        stroke: #231f20;
        stroke-miterlimit: 10;
        stroke-width: 4.6px;
      }

      .cls-2 {
        fill: #a1cf6d;
      }
    </style>
  </defs>
  <path class="cls-1" d="M-116.55,2828.46c-.13-.21.37.92.24.71.04.25.44,2.26.48,2.22,28.65,182.92,116.87,370.35,285.97,461.99,61.93,69.54,219.32,183.92,218.93,183.52,10.05,5.91,20.17,11.58,30.38,16.72,0,0,34.16,12.65,34.33,12.58,52.07,32.23,118.38,17.96,179.22,31.39,228.9,33.49,460.81-8.76,663.83-108.13-.64.49-1.28.99-1.92,1.48,155.76-69.99,266.72-234.95,364.28-373.24-.32.18-.39.4-.2.67,49.4-81.08,93.43-165.31,127.2-253.68,43.19-83.16,53.89-173.14,59.33-263.02-1.45-14.26-.16-28.49-7.91-41.25-.62-4.16-47.05-579.41-244.59-761.94-11.09-9-22.47-18.66-34.2-28.18.42.29.88.49,1.28.82-29.08-23.05-59.9-46.19-94.75-55.98h0c.87-.16-247.68-83.39-372.12-85.12-380.72-8.59-882.99,161.68-1087.73,505.41-9.17,12.01-15.46,25.86-23.14,38.76-84.88,108.61-100.53,258.12-133.93,388.69-22.67,109.22-4.66,223.17,35.03,325.59Z"/>
  <path class="cls-2" d="M951.19,3106.06c10.67,2.86,19.37,17.1,39.03,18.81,0,0,73.33,12.52,86.81-10.07.84-4.22,4.22-2.73,5.36-1.87,14.2,14.65,21.14-26.42,52.78-12.24-1.88,15.2,23.86-7.5,24.37,8.76,22.38,3.97,22.85,21.6,25.17,42.33.83,13.49,16.79,20.83,15.57,34.31-2.03,15.11-5.08,29.77-14.18,42.25-3.3,1.13,2.61,6.66-2.47,5.74-12.07,10.38,6.15,17.97-2.87,19.81-35.87-.31-62.98,23.66-95.41,29.3-8.07-.6-1.31,14.74-11.05,10.33-6.78-.75-18.93,26.21-18.93,26.21-6.81,11.2-12.13,4.29-13.49,11.44-1.45,6.59-12.4,5.55-14.29,13.59-100.48,36.87-54.67-43.46-124.36-50.08-9.84,4.35-21.31-2.13-31.99-1.17-14.37,1.62-31.86,6.04-43.41-8.83-2.98-6.04-14.43-2.3-11.12-11.34,3.66-7.41,2.62-21.64,12.11-23.69,6.63,1.04,6.41-2.73,5.47-6.82-6.92-44.51,41.28-64.05,63.5-98.91,2.05-14.48,19.13-13.09,25.33-24.71-1.19-1.96.76-1.45,1.48-1.91,10.11.36,15.54-16.07,26.59-11.23Z"/>
</svg>