<?xml version="1.0" encoding="UTF-8"?>
<svg id="Layer_1" data-name="Layer 1" xmlns="http://www.w3.org/2000/svg" version="1.1" viewBox="0 0 1714.96 2409.45">
  <defs>
    <style>
      .cls-1 {
        fill: #0a0203;
        stroke: #231f20;
        stroke-miterlimit: 10;
      }
    </style>
  </defs>
  <path class="cls-1" d="M390.73,2489.98c-3.62-40.37,1.01-80.53,3.08-120.76.11-2.15.36-4.32.22-6.46-1.46-22.38,3.31-43.88,9.14-65.24.42-1.54,1.17-3.38.71-4.72-4.95-14.61,1.47-28.48,2.58-42.69,1.17-13.1,1.78-26.29,6-38.92,4.05-6.64,4.42-15.11,10.29-20.85.55-.23.74-.63.56-1.2.11-.82.72-1.39,1.09-2.08,2.78-5.99,5.57-11.97,8.35-17.96,7.6-18.93,19.62-34.34,33.97-49.03,15.97-16.35,35.02-23.47,56.22-26.96,11.08-1.83,22.63-3.83,33.63-2.48,7.76.95,16.67.34,23.61,5.83.22.87.64,1.48,1.68,1.24,5.69,2.38,11.55,4.44,17.04,7.21,19.29,9.73,32.31,24.7,39.08,45.51,3.47,10.67,6.46,21.65,12.16,31.57,3.03,5.28,2.86,11.3,1.61,17.14-1.02,4.76-1.56,9.33-1.44,14.35.12,5.27-2.01,10.61-.46,16.31,4.58,16.78,2.74,33.76,2.68,50.91-.09,24.21-4.09,47.15-10.93,70.04-2.44,8.15-3.42,16.73-5.06,25.12-.78,4,.26,8.82-4.9,10.83-.67.26-.69.64-.54,1.27,2.57,11-5.37,20.58-4.27,31.41.36,3.56-2.86,5.82-3.92,9.03-2.2,6.61-3.29,13.32-4.36,20.01-1.04,6.59-4.52,12.02-7.4,17.58-1.87,3.6-3.43,7.13-4.54,10.96l-.34.49c-3.96,5.25-5.61,11.73-8.64,17.47-6.35,12.03-15.97,20.72-24.59,30.59-5.56,6.37-11.49,12.19-17.56,18.02-4.25,4.09-8.88,5.54-14.13,6.76-8.95,2.08-17.89,3.76-27.08,1.94-2.91-.57-5.27.72-7.55,2.05-11.62,6.83-23.65,9.95-37.57,8.86-7.51-.59-14.12-1.97-20.5-5.25-5.57-2.86-11.8-3.54-17.46-6-3,.82-5.32-.7-7.25-2.54-15.32-14.67-27.86-31.13-32.93-52.27-.57-2.36-1.04-4.72-.28-7.13Z"/>
</svg>