<?xml version="1.0" encoding="UTF-8"?>
<svg id="Layer_1" data-name="Layer 1" xmlns="http://www.w3.org/2000/svg" version="1.1" viewBox="0 0 1714.96 2409.45">
  <defs>
    <style>
      .cls-1 {
        fill: #0a0203;
      }

      .cls-1, .cls-2 {
        stroke: #231f20;
        stroke-miterlimit: 10;
      }

      .cls-2 {
        fill: #000;
      }
    </style>
  </defs>
  <path class="cls-1" d="M1197.42,2564.37c-.48.03-.96.13-1.41.29-.6.38-1.16.3-1.68-.16-10.2,5.2-21.24,7.14-32.47,8.34-25.15,7.94-48.64,3.36-71.1-9.32-18.03-10.17-29.93-25.66-38.55-44.06,1.58-10.43-2.67-20.19-3.5-30.38-1.52-18.59-1.61-37.12-.19-55.69.21-2.71.24-5.38-.25-8.05-1.16-17.07,1.36-33.79,5.25-50.31,1.42-6.02,2.72-12.06,4.14-18.07,2.99-12.66,6.85-25.07,12.19-36.98,6.4-22.15,14.31-43.76,22.64-65.25,5.6-14.45,10.65-29.11,17.29-43.14.54-9.08,5.02-16.7,10.82-22.93,18.25-19.62,39.88-33.6,67.25-36.94,7.77-.95,15.16-3.74,22.85-5.16,14.57-2.69,26.59,1.62,36.19,12.77,3.36,3.9,6.89,7.72,11.23,10.4,8.2,5.07,14.61,11.82,20.15,19.55,3.75,3.74,3.88,8.91,5.35,13.55,1.78,5.4,3.35,10.83,2.95,16.61-.57,6.09,4.71,11.59,1.77,17.91-2.41,4.58-1.71,10.05-4.21,14.6-.74,1.35-1.2,3.27-3.21,3.01-1.92-.25-2.29-2.11-2.58-3.65-.55-2.89-.23-5.92-1.31-8.73-3.06-14.98-3.67-30.54-10.94-44.52-7.5-14.41-17.18-26.07-34.42-28.89-9.64-1.58-25.89,5.56-30.69,14.09-7.78,13.82-11.18,28.71-12.66,44.57-2.15,23.02,7.89,41.85,17.78,61,1.48,2.86,3.44,5.52,4.52,8.56,3.29,9.25,10.48,13.72,19.55,14.71,14.1,1.55,36.38-3.28,41.44-22.07.67-2.47-8.77-57.48,17.61-56.29,4.15,25.58-9.35,101.93-15.69,126.86-1.63,6.42-.76,12.83-2.09,19.16-4.46,21.11-4.88,42.33-3.84,63.91.68,14.1,1.07,28.4.52,42.62-.15,3.94-.7,7.51-4.41,9.76h.08c-.08.84-.83,1.34-1.09,2.08-.2,1.9-.4,3.79-.61,5.69-6.91,14.74-15.25,28.32-29.87,36.81l-.04.27c-5.31,11.57-15.6,16.34-26.93,19.7l-.08-.02c-1.44,3.6-5.46,1.9-7.73,3.78Z"/>
  <path class="cls-2" d="M1279.11,2242.6c-.07,13.63-.91,27.2-3.44,40.62-1.92,3.85-1.88,8.25-3.82,12.22-9.29,18.94-38.1,24.18-53.66,15.42-2.43-1.36-4.2-3.37-5.53-5.75-5.3-9.57-11.31-18.82-15.1-29.11-2.24-6.09-6.92-10.78-8.27-17.57-.81-4.06-2.13-8.14-2.47-12.4-1.19-15.07-1.39-30.44,3.31-44.64,3.36-10.16,6.43-22.43,17.39-27.71,7.04-3.39,13.81-8.33,22.78-7.62,8.21.64,14.81,3.91,20.96,8.7,14.33,11.16,20.95,26.67,24.13,43.95,1.46,7.92,2.48,15.92,3.7,23.89Z"/>
</svg>