<?xml version="1.0" encoding="UTF-8"?>
<svg id="Layer_1" data-name="Layer 1" xmlns="http://www.w3.org/2000/svg" version="1.1" viewBox="0 0 1714.96 2409.45">
  <defs>
    <style>
      .cls-1 {
        fill: #a1cf6d;
        stroke: #231f20;
        stroke-miterlimit: 10;
        stroke-width: 4.6px;
      }
    </style>
  </defs>
  <path class="cls-1" d="M1445.89,1822.55c-16.43-25.24-40.27-46.07-52.5-73.06-5.57-36.5,24.21-63.66,36.25-94.94,10.98-2.79,35.69.59,35.69.59,48.4,13.82,127.62,83.13,127.62,83.13,156.7,134.7,218.06,335.13,261.11,532.81,13.12,51.93-19.52,96.88-12.74,148.18-3.37,20.17,10.11,64.32-14.89,69.63-44.66-49.16-99.61-74.18-163.5-36.49-33.26-8.07-70.28-.88-100.88,18.49-18.33,1.11-37.83-3.21-57.69-2.12-23.28,6.13-43.82,10.62-65.68,22.57-19.53,8.71-26.68,3.71-46.7,2.8-5.98,7.22-10-16.07-15.82-18.7-9.07-18.7-6.65-44,10.15-59.56,4.9-8.39,2.62-19.36,12.83-25.55,13.21-38.58-.44-82.09,25.22-117.43,40-34.88,87.12-90.38,66.72-152.07-67.84-107.07,52.71-212.7-45.19-298.28Z"/>
</svg>