<?xml version="1.0" encoding="UTF-8"?>
<svg id="Layer_1" data-name="Layer 1" xmlns="http://www.w3.org/2000/svg" version="1.1" viewBox="0 0 1714.96 2409.45">
  <defs>
    <style>
      .cls-1 {
        fill: #a1cf6d;
        stroke: #231f20;
        stroke-miterlimit: 10;
        stroke-width: 4.6px;
      }
    </style>
  </defs>
  <path class="cls-1" d="M476.77,1824.29c-23.51,56.58-3.93,128.27-52.36,174.56-11.57,12.97-35.21,6.56-43.5,16.71-10.02,7.98-28.22,12.36-37.91,23.69-47.07,25.19-94.76,76.24-76.47,133.38,9.74,19.9-20.42,32.97-28.97,49.23-24.9,23.34-41.9,57.73-76.67,67.78-20.08,6.37-25.34-21.52-39.94-28.89-35.8-39.63,38.77-93.51,4.19-137.44-7.86-19.63-30.97-37.18-25.55-60.5,22.45-20.61,26.2-54.98,53.46-71.19,8.56-23.89,32.94-39.38,29.78-66.33,13.89-18.2-1.86-52.34,16.68-68.06,97.52-82.73,221.57-141.86,338.28-188.42,18.26-1.77,18.9,20.41,22.61,32.78-1.19,8.9-15.02,17.43-22.38,23.56-2.83.84-1.83,8.46-5.33,11.64,2.42,3.71,5.06-1.58,7.37.78-1.31,4.88-6.13,3.3-9.14,4.98-2.81,1.57-8.49.18-6.97,6.51-1.73,3.22-8.97,1.6-9.4,7.73-10.3,23.12-24.82,45.87-37.76,67.5Z"/>
</svg>