<?xml version="1.0" encoding="UTF-8"?>
<svg id="Layer_1" data-name="Layer 1" xmlns="http://www.w3.org/2000/svg" version="1.1" viewBox="0 0 1714.96 2409.45">
  <defs>
    <style>
      .cls-1, .cls-2, .cls-3, .cls-4, .cls-5 {
        stroke-width: 4.6px;
      }

      .cls-1, .cls-2, .cls-3, .cls-4, .cls-5, .cls-6 {
        stroke-miterlimit: 10;
      }

      .cls-1, .cls-2, .cls-3, .cls-5, .cls-6 {
        stroke: #231f20;
      }

      .cls-1, .cls-7 {
        fill: #231f20;
      }

      .cls-2 {
        fill: #f5ec43;
      }

      .cls-3 {
        fill: #b6a69e;
      }

      .cls-7, .cls-8 {
        stroke-width: 0px;
      }

      .cls-4 {
        fill: none;
        stroke: #fff;
      }

      .cls-5 {
        fill: #ad9282;
      }

      .cls-6 {
        fill: #a1cf6d;
        stroke-width: 4.6px;
      }

      .cls-8 {
        fill: #fff;
      }
    </style>
  </defs>
  <g>
    <path class="cls-5" d="M231.71,1433.1c-8.88-7.89,2.62-23.89,13.14-19.16,5.51,3.35,7.01,12.36,3.11,17.45-3.76,4.06-11.99,5.84-16.25,1.71Z"/>
    <g>
      <g>
        <path class="cls-7" d="M477.03,1614.37c7.03,7.35,13.73,15.18,19.81,23.33,7.76,10.41,13.1,22.64,17.81,34.66,3.07,7.84,5.84,15.8,8.6,23.76.44,1.28,1.71,2.12,3.08,1.75,1.24-.34,2.19-1.79,1.75-3.08-4.98-14.36-10-28.77-16.74-42.42-2.73-5.53-5.66-11.02-9.3-16.01-3.26-4.49-6.78-8.79-10.36-13.03s-7.25-8.47-11.11-12.5c-2.23-2.33-5.76,1.21-3.54,3.54h0Z"/>
        <path class="cls-7" d="M408.33,1625.37c2.34,10.6,3.7,21.5,4.75,32.29.53,5.44.6,10.89,1.09,16.33.66,7.41,2.12,14.71,4.12,21.86,2.26,8.08,5.14,15.97,7.95,23.88.45,1.27,1.71,2.12,3.08,1.75,1.23-.34,2.2-1.8,1.75-3.08-4.94-13.87-10.14-27.87-11.72-42.61-.6-5.59-.62-11.22-1.14-16.82-.56-5.97-1.3-11.93-2.14-17.87s-1.68-11.43-2.92-17.07c-.69-3.14-5.51-1.81-4.82,1.33h0Z"/>
        <path class="cls-6" d="M384.38,1573.8c.03,15.27-.57,49.37-.54,64.64,13.56-8.81,31.45-10.55,46.45-4.52.16-13.53,2.3-27.03,6.34-39.94,5.35,13.56,10.07,27.38,14.12,41.38,15.22-10.95,33.38-17.77,52.04-19.56-5.51-12.27-11.03-24.54-16.54-36.81-.68-1.51-8.99-15.17-10.42-16-2.3-1.34-20.84-23.33-50.64-17.77-12.66,2.37-22.09,21.58-40.83,28.58Z"/>
        <path class="cls-2" d="M316.61,1460.61c13.75,15.27,43.53,24.91,51.76,43.74,2.05,4.7,2.94,9.81,3.67,14.88,2.77,19.28,3.46,38.85,2.07,58.28,34.78-12.77,73.3-25.59,107.95-12.45,3.67-4.59,1.62-11.31-.67-16.72-6.96-16.39-14.86-32.39-23.64-47.88,9.52,2.9,19.03,5.8,28.55,8.7.75-8.93,6.92-29.49,7.67-38.42-17.02-10.59-39.44-9.53-56.46-20.12-8.8,10.44-24.58,11.16-38.09,9.14-19.49-2.91-38.38-9.81-55.16-20.14-2.19-1.35-4.62-2.81-7.15-2.35-1.79.33-3.25,1.58-4.58,2.82-6.34,5.94-11.74,12.89-15.92,20.51Z"/>
        <path class="cls-7" d="M428.66,1719.07c-10.81-9.46-28.26-12.4-42.61-12.97-9.56-.37-19.18,1.49-27.94,5.31-6.47,2.82-6.67,11.92-.37,15.1,9.06,4.58,19.18,7.09,29.34,7.14,14.98.08,29.94-5.17,41.58-14.59Z"/>
        <path class="cls-7" d="M526.37,1696.31c.05-2.98,2.12-5.5,4.09-7.73,13.67-15.55,29-31.52,49.17-36.23.86-.2,1.77-.38,2.6-.1,1.88.62,2.34,3.08,2.18,5.06-.74,8.75-7.18,15.9-13.88,21.58-12.49,10.59-28.25,18.92-44.55,17.32"/>
      </g>
      <g>
        <g>
          <g>
            <path class="cls-3" d="M453.44,1355.51c14.83,32.61-4.7,79.78-38.93,91.07-63.28,12.52-105.69-89.13-47.41-120.87,28.44-17.12,70.98,2.94,86.34,29.8Z"/>
            <path class="cls-1" d="M427.96,1404.03c17.18-5.89,15.47-43.67-5.17-44.22-24.18,1.73-22.98,51.59,5.17,44.22Z"/>
            <path class="cls-8" d="M413.25,1377.2"/>
          </g>
          <path class="cls-7" d="M364.72,1359.47c-14.38,11.17-18.98,44.89,2.47,47.28.93.1,1.87.19,2.8.32,32.66,4.33,28.82-51.24.19-49.62-1.98.11-3.9.8-5.46,2.02Z"/>
          <path class="cls-8" d="M374.55,1402.51c8.1.34,11.16-8.95,9.02-10.94-6.23-6.03-14.16-10.44-22.77-7.14,0,0-1.92.57-2.01,2.77-.36,8.56,1.3,14.69,15.76,15.3Z"/>
          <path class="cls-8" d="M369.09,1363.08c-9.99,4.57-3.35,9.3,2.91,9.56,2.67.11,4.52-1.09,6.36-2.61,2.05-1.69,1.63-5.25-.75-6.18-2.84-1.1-6.56-1.47-8.53-.76Z"/>
        </g>
        <path class="cls-8" d="M411.64,1393.71c.67,2.76,3.14,4.38,5.78,5.48,2.9,1.2,6.07,1.52,9.14.9,24.07-4.89-27.03-32.52-14.92-6.38Z"/>
        <path class="cls-8" d="M428.91,1370c.57-1.59.08-3.38-1.23-4.46-7.74-6.39-23.15,9.87-5.89,10.8,3.64,0,5.95-3.11,7.12-6.34Z"/>
      </g>
      <path class="cls-7" d="M491.25,1493.18c12.61.19,25.13,1.86,37.35,4.98,1.21.31,2.84-.39,3.08-1.75,3.15-18.08,6.29-36.16,9.44-54.24.23-1.33-.36-2.69-1.75-3.08-1.2-.33-2.84.41-3.08,1.75-3.15,18.08-6.29,36.16-9.44,54.24l3.08-1.75c-12.63-3.22-25.64-4.96-38.68-5.16-3.22-.05-3.22,4.95,0,5h0Z"/>
      <path class="cls-7" d="M320.47,1445.55c-17.52-5.79-35.31-10.79-53.29-14.93-5.1-1.18-10.22-2.29-15.36-3.33-1.32-.27-2.7.38-3.08,1.75-.34,1.23.42,2.8,1.75,3.08,18.09,3.68,36,8.19,53.67,13.52,5.01,1.51,10.01,3.1,14.98,4.74,3.06,1.01,4.37-3.81,1.33-4.82h0Z"/>
      <g>
        <g>
          <path class="cls-7" d="M513.49,1415.4c-2.5,9.46-6.01,19.28-3.67,28.79.53,2.14,1.45,4.34,3.29,5.56,1.37.9,3.05,1.14,4.68,1.36,13.21,1.76,26.43,3.51,39.64,5.27,1.79.24,3.67.47,5.35-.2,2.34-.93,3.7-3.33,4.78-5.61,11.09-23.37,11.96-50.23,19.83-74.87,2.54-7.95,5.06-18.41-1.78-23.2-2.17-1.52-4.87-2.02-7.48-2.46-16.04-2.68-28.42-5.63-44.67-5.83-2.12-.03-4.36,0-6.16,1.11-1.99,1.23-3.02,3.53-3.85,5.72-2.42,6.38-5.88,48.99-9.95,64.35Z"/>
          <path class="cls-7" d="M511.08,1414.73c-1.78,6.7-3.95,13.37-4.44,20.33-.39,5.55.06,13.93,5.56,17.06,2.93,1.67,6.79,1.65,10.05,2.08,3.63.48,7.27.97,10.9,1.45,7.1.94,14.21,1.89,21.31,2.83,3.4.45,7.05,1.3,10.23-.45,2.54-1.4,4.04-4.07,5.23-6.6,2.72-5.79,4.88-11.83,6.64-17.97,3.56-12.39,5.59-25.15,8.27-37.74,1.34-6.3,2.84-12.57,4.77-18.72,1.54-4.91,3.09-10.05,2.91-15.25s-2.62-10.32-7.75-12.53c-2.94-1.27-6.16-1.6-9.29-2.15-3.3-.57-6.6-1.17-9.9-1.76-6.23-1.11-12.48-2.14-18.78-2.8-3.32-.35-6.65-.59-9.99-.72-3.11-.11-6.54-.44-9.49.75-6.66,2.7-7.34,11.75-8.22,17.89-2.41,16.73-3.66,33.49-7.04,50.02-.29,1.43-.61,2.86-.98,4.28-.82,3.11,4,4.44,4.82,1.33,1.81-6.9,2.74-14.06,3.71-21.12,1.18-8.57,2.21-17.16,3.31-25.75.12-.92.24-1.85.36-2.77.14-1.04.17-1.26.3-2.22.22-1.64.46-3.28.71-4.91.34-2.23.67-4.5,1.27-6.68.39-1.41.98-2.91,1.87-4.08,1.55-2.04,4.19-1.86,6.5-1.83,6.11.1,12.22.6,18.27,1.45,6.04.85,12.03,1.96,18.03,3.03,3.09.55,6.22.99,9.29,1.63,2.32.48,4.69,1.25,6.19,3.14,2.52,3.19,1.99,8.09,1.19,11.97-1.09,5.29-3.02,10.39-4.37,15.62-3.05,11.78-4.97,23.81-7.58,35.69-1.3,5.9-2.77,11.77-4.63,17.52-.95,2.93-2,5.84-3.19,8.69-.97,2.33-1.93,5.03-3.53,7.02-1.83,2.28-4.59,1.61-7.16,1.27-3.3-.44-6.61-.88-9.91-1.32-6.86-.91-13.71-1.82-20.57-2.73-3.16-.42-6.43-.65-9.55-1.33-2.6-.57-3.58-2.39-4.19-4.84-1.51-6.07-.31-12.42,1.2-18.36.78-3.05,1.66-6.06,2.47-9.1s-3.99-4.44-4.82-1.33Z"/>
        </g>
        <path class="cls-4" d="M574.17,1389.7c-9.86.93-15.66-11.08-15.93-19.7,8.09,93.97-59.35,40.66-15.72,25.08"/>
      </g>
    </g>
  </g>
  <path class="cls-7" d="M394.75,1437.59c8.14,0,16.27,0,24.41,0,3.22,0,3.22-5,0-5-8.14,0-16.27,0-24.41,0-3.22,0-3.22,5,0,5h0Z"/>
</svg>