<?xml version="1.0" encoding="UTF-8"?>
<svg id="Layer_1" data-name="Layer 1" xmlns="http://www.w3.org/2000/svg" version="1.1" viewBox="0 0 1714.96 2409.45">
  <defs>
    <style>
      .cls-1, .cls-2 {
        stroke: #231f20;
      }

      .cls-1, .cls-2, .cls-3 {
        stroke-miterlimit: 10;
        stroke-width: 4.6px;
      }

      .cls-1, .cls-4 {
        fill: #231f20;
      }

      .cls-2 {
        fill: #fce0ce;
      }

      .cls-4, .cls-5, .cls-6, .cls-7 {
        stroke-width: 0px;
      }

      .cls-3 {
        fill: none;
        stroke: #fff;
      }

      .cls-5 {
        fill: #00b1dc;
      }

      .cls-6 {
        fill: #c77161;
      }

      .cls-7 {
        fill: #fff;
      }
    </style>
  </defs>
  <g>
    <path class="cls-4" d="M863.76,1540.95c.07,12.83.51,25.67.87,38.5.41,14.54.84,29.09.96,43.64.05,6.7.06,13.41-.18,20.11-.12,3.22,4.88,3.21,5,0,.46-12.82.17-25.67-.11-38.48-.32-14.55-.8-29.09-1.17-43.64-.17-6.7-.33-13.41-.36-20.12-.02-3.22-5.02-3.22-5,0h0Z"/>
    <path class="cls-4" d="M866.85,1644.33c12.12-2.48,23.89-8.74,36.16-7.14,1.87.24,3.83.73,5.16,2.08,2.13,2.16,1.82,5.93,0,8.37-1.82,2.43-4.75,3.77-7.65,4.67-11.46,3.55-23.86-1.06-33.67-7.98Z"/>
  </g>
  <g>
    <path class="cls-2" d="M970.75,1347.87c-8.88-7.89,2.62-23.89,13.14-19.16,5.51,3.35,7.01,12.36,3.11,17.45-3.76,4.06-11.99,5.84-16.25,1.71Z"/>
    <g>
      <path class="cls-5" d="M768.13,1383.82c-1.97,8.8-1.13,17.81-3.11,26.61,6.54,1.52,12.93,3.7,19.04,6.49,1.45.66,3.01,1.5,3.52,3.01.46,1.35-.09,2.82-.62,4.14-8.19,20.53-14.21,41.93-17.93,63.72,36.18-2.62,72.46-3.9,108.73-3.86-7-22.57-11.96-45.78-14.81-69.24,15.78-6.32,31.55-12.64,47.33-18.96-4.72-8.33-9.45-16.65-14.17-24.98-6.93,3.7-13.86,7.4-20.8,11.1-8.28,4.42-16.67,8.88-25.79,11.08-9.91,2.39-20.27,1.99-30.42,1-17.27-1.69-34.38-5.08-50.99-10.12Z"/>
      <path class="cls-4" d="M765.72,1383.15c-1.91,8.77-1.2,17.85-3.11,26.61-.28,1.28.37,2.75,1.75,3.08,5.87,1.38,11.64,3.24,17.16,5.67,1.04.46,2.25.88,3.15,1.59s.54,1.54.2,2.51c-1.02,2.87-2.22,5.69-3.28,8.55-4.29,11.63-7.88,23.51-10.77,35.57-1.62,6.76-3.01,13.57-4.19,20.41-.25,1.47.65,3.29,2.41,3.16,28.25-2.04,56.56-3.28,84.88-3.69,7.95-.12,15.9-.17,23.85-.16,1.58,0,2.89-1.6,2.41-3.16-5.39-17.44-9.59-35.23-12.53-53.25-.83-5.1-1.56-10.21-2.18-15.33l-1.84,2.41c15.78-6.32,31.55-12.64,47.33-18.96,1.49-.6,2.36-2.14,1.49-3.67-4.72-8.33-9.45-16.65-14.17-24.98-.68-1.21-2.24-1.53-3.42-.9-7.75,4.14-15.48,8.29-23.24,12.41-7.34,3.9-14.84,7.66-22.98,9.58-8.33,1.97-16.99,1.88-25.47,1.22s-17.28-1.86-25.82-3.44c-9.64-1.79-19.18-4.11-28.56-6.95-3.09-.93-4.41,3.89-1.33,4.82,17.14,5.18,34.78,8.63,52.61,10.3,8.79.82,17.66,1.09,26.4-.41s16.53-5.02,24.19-8.97c8.97-4.62,17.83-9.48,26.73-14.23l-3.42-.9c4.72,8.33,9.45,16.65,14.17,24.98l1.49-3.67c-15.78,6.32-31.55,12.64-47.33,18.96-.93.37-1.98,1.26-1.84,2.41,2.25,18.42,5.72,36.68,10.49,54.61,1.37,5.13,2.84,10.23,4.41,15.29l2.41-3.16c-28.32-.03-56.65.74-84.93,2.33-7.94.45-15.87.96-23.8,1.53l2.41,3.16c2.22-12.92,5.22-25.69,9.02-38.24,1.92-6.35,4.04-12.63,6.36-18.85.55-1.48,1.11-2.95,1.69-4.43.54-1.39,1.23-2.8,1.55-4.26.7-3.29-.93-5.93-3.8-7.46-3.09-1.65-6.49-2.88-9.78-4.04-3.54-1.25-7.14-2.3-10.79-3.16l1.75,3.08c1.91-8.77,1.2-17.85,3.11-26.61.68-3.14-4.13-4.48-4.82-1.33Z"/>
    </g>
    <g>
      <path class="cls-4" d="M790.51,1540.36c.12,14.32-.29,28.65-.76,42.96-.52,15.92-1.19,31.83-1.93,47.74-.35,7.53-.71,15.07-1.08,22.6-.16,3.22,4.84,3.21,5,0,.7-14.31,1.38-28.62,1.97-42.93.66-15.91,1.25-31.83,1.59-47.75.16-7.54.26-15.08.2-22.62-.03-3.22-5.03-3.22-5,0h0Z"/>
      <path class="cls-4" d="M789.92,1655.01c-10.81-7.14-25-8.94-37.96-8.81-4.38.04-9.25.77-12.01,4.18-1.09,1.34-1.76,3.1-1.47,4.81.48,2.79,3.26,4.56,5.94,5.48,4.6,1.58,9.59,1.69,14.44,1.32,10.6-.81,20.89-3.85,31.05-6.98Z"/>
    </g>
    <g>
      <path class="cls-6" d="M755.68,1554.61c26.71-3.13,53.57-4.88,80.46-5.71,20.85-.65,42.43-.62,61.59,7.62-6.34-19.87-12.31-50.93-18.65-70.8-.55-1.72-1.23-3.61-2.84-4.43-1.03-.53-2.24-.51-3.39-.48-32.99.88-65.99,1.77-98.98,2.65-.98.03-2.03.07-2.83.64-1.12.8-1.38,2.32-1.56,3.68-.54,4.25-13.26,62.57-13.8,66.83Z"/>
      <path class="cls-4" d="M755.68,1557.11c19.17-2.24,38.43-3.78,57.7-4.78,9.46-.49,18.92-.88,28.39-1.09,8.82-.2,17.67-.16,26.46.69,9.63.93,19.3,2.93,28.23,6.74.95.4,1.91.49,2.78-.2.76-.6,1.2-1.66.9-2.63-6.18-19.44-9.99-39.56-15.29-59.25-1.19-4.41-2.24-9.04-3.98-13.28-1.23-3.01-3.38-4.83-6.71-5.02-3.06-.17-6.21.13-9.27.21-13.1.35-26.2.7-39.29,1.05s-25.86.69-38.8,1.04c-3.23.09-6.47.17-9.7.26-2.77.07-6.26-.34-8.33,1.92-.87.95-1.35,2.21-1.58,3.47-.07.39-.12.79-.17,1.19-.12.91-.01-.16.03-.25-.04.06-.03.21-.04.29-.09.49-.17.98-.26,1.47-2.08,10.96-4.52,21.85-6.83,32.76s-4.6,20.75-6.48,31.2c-.1.57-.19,1.13-.26,1.7-.17,1.34,1.27,2.5,2.5,2.5,1.5,0,2.32-1.15,2.5-2.5-.17,1.31.05-.18.11-.53.12-.66.25-1.31.38-1.97.4-2.02.81-4.04,1.23-6.06,1.21-5.86,2.45-11.71,3.69-17.56,2.47-11.65,4.99-23.3,7.35-34.97.29-1.42.58-2.84.83-4.26.13-.73.19-1.47.36-2.19.18-.76.24-.99,1-1.08,1.55-.17,3.16-.1,4.72-.14,12.68-.34,25.37-.68,38.05-1.02s25.37-.68,38.05-1.02c6.3-.17,12.6-.38,18.9-.51.96-.02,2.03-.18,2.73.61.65.74.9,1.87,1.19,2.78.66,2.08,1.28,4.17,1.88,6.27,5.48,19.18,9.29,38.8,14.79,57.97.6,2.09,1.22,4.17,1.88,6.24l3.67-2.82c-16.64-7.1-34.8-8.39-52.69-8.19-19.22.21-38.46,1.27-57.62,2.75-11.02.85-22.03,1.91-33.01,3.19-1.34.16-2.5,1.04-2.5,2.5,0,1.23,1.15,2.66,2.5,2.5Z"/>
    </g>
    <path class="cls-4" d="M904.09,1383.04c16.49-9.32,33.22-18.21,50.19-26.63,4.84-2.4,9.69-4.76,14.56-7.09,1.22-.58,1.54-2.32.9-3.42-.73-1.25-2.2-1.48-3.42-.9-17.09,8.17-33.96,16.78-50.59,25.85-4.74,2.59-9.46,5.21-14.16,7.87-2.8,1.58-.28,5.9,2.52,4.32h0Z"/>
    <path class="cls-4" d="M767.91,1395.65c-17.59-7.33-34.88-15.37-51.84-24.06l.9,3.42c6.1-8.4,10.72-17.81,13.73-27.75.93-3.09-3.89-4.41-4.82-1.33-2.89,9.54-7.37,18.49-13.22,26.55-.76,1.05-.22,2.85.9,3.42,17.35,8.89,35.04,17.07,53.04,24.56,1.25.52,2.75-.56,3.08-1.75.4-1.44-.49-2.55-1.75-3.08h0Z"/>
    <g>
      <g>
        <g>
          <g>
            <path class="cls-2" d="M871.63,1262.9c56.89,34.17,10.24,133.94-52.46,118.77-33.72-12.73-51.24-60.67-35.06-92.63,16.48-26.19,59.82-44.44,87.52-26.14Z"/>
            <path class="cls-1" d="M814.55,1294.63c-20.64-.32-23.94,37.36-7.02,43.96,27.81,8.55,31.11-41.22,7.02-43.96Z"/>
            <path class="cls-7" d="M823.36,1312.41"/>
          </g>
          <path class="cls-4" d="M866.99,1296.01c-26.78-2.65-32.57,49.29-1.78,46.52.88-.08,1.76-.13,2.64-.19,20.2-1.39,17.22-33.19,4.18-44.23-1.42-1.2-3.19-1.93-5.04-2.11Z"/>
          <path class="cls-7" d="M860.96,1339.32c-8.1,0-10.77-9.41-8.55-11.31,6.48-5.76,14.59-9.84,23.05-6.17,0,0,1.89.65,1.89,2.86,0,8.56-1.92,14.62-16.39,14.62Z"/>
          <path class="cls-7" d="M868.08,1300.16c9.78,4.99,2.95,9.44-3.31,9.43-2.67,0-4.47-1.28-6.25-2.88-1.97-1.77-1.41-5.32,1.01-6.14,2.88-.98,6.62-1.19,8.55-.4Z"/>
        </g>
        <path class="cls-7" d="M809.09,1334.71c3.05.75,6.23.57,9.17-.51,2.69-.98,5.22-2.5,6.01-5.23,13.19-25.61-39.02-.16-15.18,5.74Z"/>
        <path class="cls-7" d="M814.86,1311.19c17.29-.2,2.57-17.1-5.43-11.04-1.35,1.02-1.92,2.79-1.41,4.41,1.03,3.27,3.21,6.48,6.84,6.63Z"/>
      </g>
      <path class="cls-4" d="M826.64,1355.36c8.14,0,16.27,0,24.41,0,3.22,0,3.22-5,0-5-8.14,0-16.27,0-24.41,0-3.22,0-3.22,5,0,5h0Z"/>
    </g>
    <g>
      <g>
        <path class="cls-4" d="M702.29,1309.63c-2.5,9.46-6.01,19.28-3.67,28.79.53,2.14,1.45,4.34,3.29,5.56,1.37.9,3.05,1.14,4.68,1.36,13.21,1.76,26.43,3.51,39.64,5.27,1.79.24,3.67.47,5.35-.2,2.34-.93,3.7-3.33,4.78-5.61,11.09-23.37,11.96-50.23,19.83-74.87,2.54-7.95,5.06-18.41-1.78-23.2-2.17-1.52-4.87-2.02-7.48-2.46-16.04-2.68-28.42-5.63-44.67-5.83-2.12-.03-4.36,0-6.16,1.11-1.99,1.23-3.02,3.53-3.85,5.72-2.42,6.38-5.88,48.99-9.95,64.35Z"/>
        <path class="cls-4" d="M699.88,1308.96c-1.78,6.7-3.95,13.37-4.44,20.33-.39,5.55.06,13.93,5.56,17.06,2.93,1.67,6.79,1.65,10.05,2.08,3.63.48,7.27.97,10.9,1.45,7.1.94,14.21,1.89,21.31,2.83,3.4.45,7.05,1.3,10.23-.45,2.54-1.4,4.04-4.07,5.23-6.6,2.72-5.79,4.88-11.83,6.64-17.97,3.56-12.39,5.59-25.15,8.27-37.74,1.34-6.3,2.84-12.57,4.77-18.72,1.54-4.91,3.09-10.05,2.91-15.25s-2.62-10.32-7.75-12.53c-2.94-1.27-6.16-1.6-9.29-2.15-3.3-.57-6.6-1.17-9.9-1.76-6.23-1.11-12.48-2.14-18.78-2.8-3.32-.35-6.65-.59-9.99-.72-3.11-.11-6.54-.44-9.49.75-6.66,2.7-7.34,11.75-8.22,17.89-2.41,16.73-3.66,33.49-7.04,50.02-.29,1.43-.61,2.86-.98,4.28-.82,3.11,4,4.44,4.82,1.33,1.81-6.9,2.74-14.06,3.71-21.12,1.18-8.57,2.21-17.16,3.31-25.75.12-.92.24-1.85.36-2.77.14-1.04.17-1.26.3-2.22.22-1.64.46-3.28.71-4.91.34-2.23.67-4.5,1.27-6.68.39-1.41.98-2.91,1.87-4.08,1.55-2.04,4.19-1.86,6.5-1.83,6.11.1,12.22.6,18.27,1.45s12.03,1.96,18.03,3.03c3.09.55,6.22.99,9.29,1.63,2.32.48,4.69,1.25,6.19,3.14,2.52,3.19,1.99,8.09,1.19,11.97-1.09,5.29-3.02,10.39-4.37,15.62-3.05,11.78-4.97,23.81-7.58,35.69-1.3,5.9-2.77,11.77-4.63,17.52-.95,2.93-2,5.84-3.19,8.69-.97,2.33-1.93,5.03-3.53,7.02-1.83,2.28-4.59,1.61-7.16,1.27-3.3-.44-6.61-.88-9.91-1.32-6.86-.91-13.71-1.82-20.57-2.73-3.16-.42-6.43-.65-9.55-1.33-2.6-.57-3.58-2.39-4.19-4.84-1.51-6.07-.31-12.42,1.2-18.36.78-3.05,1.66-6.06,2.47-9.1s-3.99-4.44-4.82-1.33Z"/>
      </g>
      <path class="cls-3" d="M763.2,1284.28c-9.86.93-15.66-11.08-15.93-19.7,8.09,93.97-59.35,40.66-15.72,25.08"/>
    </g>
  </g>
</svg>