<?xml version="1.0" encoding="UTF-8"?>
<svg id="Layer_1" data-name="Layer 1" xmlns="http://www.w3.org/2000/svg" version="1.1" viewBox="0 0 1714.96 2409.45">
  <defs>
    <style>
      .cls-1 {
        fill: #0a0203;
      }

      .cls-1, .cls-2, .cls-3 {
        stroke-width: 0px;
      }

      .cls-4, .cls-5, .cls-6, .cls-7 {
        stroke-width: 4.6px;
      }

      .cls-4, .cls-5, .cls-6, .cls-7, .cls-8 {
        stroke-miterlimit: 10;
      }

      .cls-4, .cls-5, .cls-7, .cls-8 {
        stroke: #231f20;
      }

      .cls-4, .cls-2 {
        fill: #231f20;
      }

      .cls-5 {
        fill: #f5ec43;
      }

      .cls-6 {
        fill: none;
        stroke: #fff;
      }

      .cls-7 {
        fill: #816c5d;
      }

      .cls-8 {
        fill: #a1cf6d;
        stroke-width: 4.6px;
      }

      .cls-3 {
        fill: #fff;
      }
    </style>
  </defs>
  <path class="cls-2" d="M1303.19,1603.95c5.57,12.66,16.12,22.01,25.04,32.25,2.19,2.51,4.29,5.09,6.19,7.82.9,1.3,2.13,2.59,1.69,4.25-.52,1.95-1.44,3.84-2.15,5.73-2.91,7.72-5.52,15.56-7.83,23.48-2.61,8.99-4.82,18.1-6.63,27.29-.26,1.32.38,2.7,1.75,3.08,1.23.34,2.81-.42,3.08-1.75,3.27-16.59,7.85-32.91,13.71-48.76.74-2.01,1.51-4.01,2.29-6.01s1.3-4.04.57-6.1c-.63-1.78-1.85-3.34-2.95-4.86s-2.14-2.86-3.26-4.25c-4.43-5.48-9.4-10.49-14.1-15.73-5.16-5.75-9.94-11.86-13.07-18.97-.54-1.24-2.35-1.52-3.42-.9-1.27.75-1.44,2.18-.9,3.42h0Z"/>
  <g>
    <path class="cls-7" d="M1036.68,1486.52c-11.74-1.81-10.76-21.49.65-23.22,6.45-.17,12.59,6.58,12.08,12.97-.96,5.45-6.9,11.41-12.73,10.25Z"/>
    <path class="cls-2" d="M1213.63,1729.64c-7.25-10.43-22.37-17.18-35.34-21.22-8.63-2.69-17.94-3.56-27.02-2.62-6.7.69-9.42,8.08-4.54,12.26,7.01,6.01,15.56,10.58,24.83,13.15,13.67,3.8,28.8,3.24,42.07-1.57Z"/>
    <path class="cls-2" d="M1322.06,1705.96c17.92-3.15,35.31-11.09,53.45-9.06,2.77.31,5.67.93,7.63,2.64,3.15,2.75,2.69,7.53,0,10.62-2.69,3.09-7.02,4.79-11.31,5.93-16.94,4.51-35.27-1.35-49.76-10.13Z"/>
    <path class="cls-5" d="M1193.88,1546.1c-.03,17.14-.55,43.74-.58,60.88,0,1.27.04,2.66.87,3.63.84.98,2.25,1.22,3.53,1.39,22.52,2.98,45.2,4.84,67.91,5.57.34-12.55-1.39-25.16-5.12-37.16,8.23,7.58,14.79,16.98,19.05,27.33,18.34-3.46,36.67-6.93,55.01-10.39-3.89-20.87-7.77-41.73-11.66-62.6-.49-2.63-1.24-12.85-3.53-14.23-1.97-1.2-4.48-.82-6.75-.4-42.68,7.92-77.21,13.29-118.72,25.98Z"/>
    <path class="cls-2" d="M1050.11,1476.83c20.32-.29,40.64,1.75,60.47,6.18,5.59,1.25,11.14,2.68,16.64,4.29,1.08.32,2.25-.22,2.82-1.15,5.59-9.03,14.01-16.35,23.83-20.46,1.24-.52,2.14-1.65,1.75-3.08-.32-1.17-1.82-2.27-3.08-1.75-11.08,4.64-20.48,12.53-26.82,22.76l2.82-1.15c-19.85-5.8-40.37-9.27-61.02-10.33-5.8-.3-11.61-.4-17.42-.31-3.21.05-3.22,5.05,0,5h0Z"/>
    <path class="cls-8" d="M1143.23,1450.8c1.37,12.47,6.16,24.56,13.69,34.59,9.03-8.62,18.05-17.23,27.08-25.85,1.46,31.13,2.92,62.25,4.37,93.38,44.92-15.21,91.81-24.6,139.12-27.86-7.86-29.07-15.73-58.14-23.59-87.21-.77-2.86-1.55-5.84-1.03-8.76.49-2.72,2.07-5.1,3.63-7.39,11.69-17.08,24.36-33.49,37.94-49.12-7.51-9.86-15.48-19.36-23.87-28.48-18.79,15.96-37.58,31.91-56.38,47.87-2.63,2.23-5.33,4.51-8.57,5.69-3.48,1.27-7.29,1.17-10.99,1.05-15.22-.48-30.44-.95-45.66-1.43-2.38-.07-4.85-.14-7.07.73-2.47.96-4.36,2.96-6.16,4.9-13.82,14.87-28.7,33.01-42.52,47.87Z"/>
    <path class="cls-2" d="M1332.69,1358.15c2.44-1.73,4.88-3.45,7.31-5.18,2.11-1.49,4.58-2.88,6.19-4.94,1.74-2.22,1.77-4.86,1.65-7.56s-.18-5.53-.18-8.3c.02-11.08,1.07-22.16,3.17-33.04,1.2-6.21,2.73-12.35,4.57-18.4.94-3.09-3.89-4.4-4.82-1.33-3.15,10.36-5.35,20.97-6.64,31.72-.64,5.34-1.04,10.7-1.2,16.08-.08,2.77-.1,5.53-.06,8.3.04,2.55.47,5.27.19,7.81-.27,2.4-3.04,3.67-4.8,4.92-2.64,1.87-5.28,3.74-7.92,5.61-1.1.78-1.62,2.18-.9,3.42.64,1.09,2.31,1.68,3.42.9h0Z"/>
    <path class="cls-2" d="M1220.97,1617.03c-3.11,28.97-5.79,57.99-8.04,87.04-.63,8.19-1.23,16.39-1.8,24.59-.09,1.35,1.22,2.5,2.5,2.5,1.43,0,2.41-1.15,2.5-2.5,2.01-29.07,4.44-58.11,7.31-87.11.81-8.18,1.65-16.35,2.53-24.53.14-1.34-1.25-2.5-2.5-2.5-1.47,0-2.36,1.15-2.5,2.5h0Z"/>
    <g>
      <g>
        <g>
          <g>
            <path class="cls-7" d="M1268.31,1262.14c58.87,30.64,18.37,133.07-45.13,121.74-34.43-10.65-54.84-57.44-40.63-90.32,14.85-27.14,57-48,85.76-31.42Z"/>
            <path class="cls-4" d="M1213.27,1297.28c-20.62.93-21.62,38.74-4.33,44.31,28.28,6.84,28.54-43.03,4.33-44.31Z"/>
            <path class="cls-3" d="M1223.14,1314.49"/>
          </g>
          <path class="cls-2" d="M1265.7,1295.47c-26.89-1.02-29.51,51.18,1.06,46.54.87-.13,1.75-.23,2.62-.35,20.08-2.62,15.17-34.17,1.48-44.4-1.49-1.11-3.3-1.73-5.16-1.8Z"/>
          <path class="cls-3" d="M1262.31,1339.07c-8.09.49-11.33-8.74-9.22-10.77,6.11-6.14,13.96-10.71,22.63-7.56,0,0,1.93.53,2.06,2.74.52,8.55-1.03,14.71-15.47,15.6Z"/>
          <path class="cls-3" d="M1267.03,1299.55c10.07,4.38,3.52,9.24-2.73,9.61-2.67.16-4.54-1.01-6.41-2.49-2.08-1.65-1.73-5.22.63-6.19,2.81-1.16,6.53-1.59,8.51-.92Z"/>
        </g>
        <path class="cls-3" d="M1210.26,1337.63c3.09.57,6.25.19,9.12-1.07,2.62-1.15,5.06-2.81,5.68-5.59,11.61-26.36-38.95,2.22-14.8,6.66Z"/>
        <path class="cls-3" d="M1214.59,1313.79c17.24-1.26,1.52-17.23-6.09-10.69-1.28,1.1-1.74,2.9-1.14,4.48,1.22,3.21,3.59,6.27,7.23,6.21Z"/>
      </g>
      <path class="cls-2" d="M1228.88,1357.17c8.12-.5,16.24-.99,24.36-1.49,3.2-.19,3.22-5.2,0-5-8.12.5-16.24.99-24.36,1.49-3.2.19-3.22,5.2,0,5h0Z"/>
    </g>
    <g>
      <g>
        <path class="cls-1" d="M1336.76,1236.71c-5.75,7.92-12.56,15.82-13.81,25.53-.28,2.19-.21,4.57,1.06,6.37.95,1.34,2.44,2.17,3.87,2.95,11.69,6.41,23.38,12.81,35.07,19.22,1.58.87,3.26,1.76,5.06,1.74,2.52-.02,4.66-1.77,6.48-3.51,18.78-17.8,29.27-42.53,45.5-62.68,5.24-6.5,11.36-15.35,6.7-22.28-1.48-2.2-3.81-3.64-6.09-4.99-13.99-8.28-24.47-15.5-39.56-21.56-1.96-.79-4.07-1.57-6.14-1.18-2.3.43-4.09,2.21-5.66,3.95-4.56,5.08-23.16,43.57-32.49,56.43Z"/>
        <path class="cls-2" d="M1334.6,1235.45c-3.54,4.87-7.38,9.58-10.22,14.91-1.42,2.66-2.62,5.49-3.33,8.43s-1.19,6.23-.16,9.13c1.18,3.34,4.12,4.92,7.05,6.53,3.22,1.76,6.43,3.52,9.65,5.28,6.43,3.52,12.86,7.05,19.29,10.57,2.89,1.59,5.98,3.82,9.25,4.52s6.39-.79,8.95-2.95c4.58-3.87,8.56-8.64,12.25-13.34,7.58-9.66,13.93-20.17,20.53-30.5,3.29-5.14,6.64-10.25,10.26-15.16s7.71-9.25,10.38-14.63c2.67-5.39,3.56-11.6-.48-16.58-1.94-2.39-4.73-3.91-7.33-5.46-2.81-1.67-5.6-3.38-8.39-5.07-5.26-3.2-10.54-6.38-15.99-9.26-2.8-1.48-5.64-2.88-8.52-4.18-3.03-1.37-6.25-3.06-9.53-3.71-8.35-1.64-12.81,7.06-16.23,13.11-8.35,14.78-15.67,30.21-24.83,44.54-.83,1.3-1.68,2.58-2.59,3.83-.79,1.1-.19,2.79.9,3.42,1.26.74,2.63.2,3.42-.9,4.27-5.91,7.78-12.4,11.31-18.77,4.14-7.49,8.15-15.05,12.23-22.57,1.66-3.06,3.33-6.12,5.08-9.13.63-1.09,1.28-2.18,1.95-3.25.26-.41.52-.82.8-1.22.12-.17.24-.34.36-.51.24-.34.43-.49.03-.06,1.27-1.37,2.58-3.2,4.52-3.63,1.33-.3,2.67.15,3.91.6,1.52.55,3.02,1.19,4.5,1.84,5.49,2.4,10.81,5.16,16.01,8.14s10.02,5.98,15.01,9c2.57,1.56,5.34,2.95,7.74,4.77,1.83,1.38,3.23,3.26,3.45,5.6.49,5.1-3.26,10.15-6.16,13.98-3.44,4.55-6.98,8.99-10.2,13.71-6.53,9.58-12.38,19.6-18.91,29.18-3.18,4.66-6.51,9.22-10.17,13.51-1.87,2.2-3.83,4.33-5.88,6.37-1.61,1.6-3.69,4.19-6.1,4.49-1.23.16-2.41-.44-3.46-.99-1.57-.83-3.12-1.71-4.68-2.56-3-1.64-5.99-3.28-8.99-4.92-6.06-3.32-12.13-6.65-18.19-9.97-1.44-.79-2.88-1.56-4.31-2.36-1.12-.63-2.44-1.29-3.02-2.52-1.03-2.19-.3-5.13.31-7.35,1.47-5.37,4.6-10.1,7.83-14.57,1.65-2.28,3.36-4.52,5.02-6.8.79-1.09.19-2.79-.9-3.42-1.26-.74-2.62-.2-3.42.9Z"/>
      </g>
      <path class="cls-6" d="M1403.52,1235.14c-9.44-2.98-10.12-16.29-7.02-24.34-29.06,89.73-70.49,14.4-24.23,17"/>
    </g>
  </g>
</svg>