<?xml version="1.0" encoding="UTF-8"?>
<svg id="Layer_1" data-name="Layer 1" xmlns="http://www.w3.org/2000/svg" version="1.1" viewBox="0 0 1714.96 2409.45">
  <defs>
    <style>
      .cls-1 {
        fill: #fff;
        stroke-width: 0px;
      }
    </style>
  </defs>
  <g>
    <path class="cls-1" d="M406.95,2379.66v-17.13h1.99v17.13h-1.99Z"/>
    <path class="cls-1" d="M422.14,2379.66v-8.31c0-1.05-.24-1.83-.71-2.34s-1.22-.77-2.24-.77c-1.34,0-2.33.36-2.95,1.09s-.94,1.93-.94,3.6v6.74h-1.95v-12.84h1.58l.32,1.76h.09c.4-.63.96-1.12,1.68-1.47s1.52-.52,2.4-.52c1.55,0,2.71.37,3.49,1.12s1.17,1.94,1.17,3.58v8.38h-1.95Z"/>
    <path class="cls-1" d="M436.36,2376.16c0,1.2-.45,2.12-1.34,2.77s-2.14.97-3.75.97c-1.7,0-3.03-.27-3.98-.81v-1.8c.62.31,1.28.56,1.99.74s1.39.27,2.04.27c1.02,0,1.8-.16,2.34-.49s.82-.82.82-1.48c0-.5-.22-.93-.65-1.28s-1.28-.78-2.54-1.26c-1.2-.45-2.04-.83-2.55-1.17s-.88-.71-1.12-1.13-.37-.93-.37-1.51c0-1.05.43-1.87,1.28-2.48s2.02-.91,3.5-.91c1.38,0,2.73.28,4.05.84l-.69,1.58c-1.29-.53-2.46-.8-3.5-.8-.92,0-1.62.14-2.09.43s-.7.69-.7,1.2c0,.34.09.64.26.88s.46.47.85.69,1.14.54,2.25.95c1.52.55,2.55,1.11,3.09,1.68s.8,1.27.8,2.12Z"/>
    <path class="cls-1" d="M443.68,2378.29c.34,0,.67-.03,1-.08.32-.05.57-.1.76-.16v1.49c-.21.1-.52.19-.93.25s-.78.1-1.11.1c-2.48,0-3.73-1.31-3.73-3.93v-7.64h-1.84v-.94l1.84-.81.82-2.74h1.13v2.98h3.73v1.51h-3.73v7.56c0,.77.18,1.37.55,1.78.37.41.87.62,1.51.62Z"/>
    <path class="cls-1" d="M447.84,2363.34c0-.45.11-.77.33-.98.22-.21.49-.31.82-.31s.58.11.81.32c.23.21.34.54.34.97s-.11.76-.34.98c-.23.21-.5.32-.81.32-.33,0-.6-.11-.82-.32-.22-.21-.33-.54-.33-.98ZM449.95,2379.66h-1.95v-12.84h1.95v12.84Z"/>
    <path class="cls-1" d="M458.22,2378.29c.34,0,.67-.03,1-.08.32-.05.57-.1.76-.16v1.49c-.21.1-.52.19-.93.25s-.78.1-1.11.1c-2.48,0-3.73-1.31-3.73-3.93v-7.64h-1.84v-.94l1.84-.81.82-2.74h1.12v2.98h3.73v1.51h-3.73v7.56c0,.77.18,1.37.55,1.78.37.41.87.62,1.51.62Z"/>
    <path class="cls-1" d="M464.37,2366.82v8.33c0,1.05.24,1.83.71,2.34.48.52,1.22.77,2.24.77,1.34,0,2.33-.37,2.95-1.1s.93-1.93.93-3.6v-6.75h1.95v12.84h-1.61l-.28-1.72h-.11c-.4.63-.95,1.12-1.66,1.45-.71.34-1.51.5-2.42.5-1.56,0-2.73-.37-3.51-1.11-.78-.74-1.17-1.93-1.17-3.56v-8.4h1.97Z"/>
    <path class="cls-1" d="M481.42,2378.29c.34,0,.67-.03,1-.08.32-.05.57-.1.76-.16v1.49c-.21.1-.52.19-.93.25-.41.07-.78.1-1.11.1-2.48,0-3.73-1.31-3.73-3.93v-7.64h-1.84v-.94l1.84-.81.82-2.74h1.12v2.98h3.73v1.51h-3.73v7.56c0,.77.18,1.37.55,1.78.37.41.87.62,1.51.62Z"/>
    <path class="cls-1" d="M489.9,2378.29c.34,0,.67-.03,1-.08.32-.05.57-.1.76-.16v1.49c-.21.1-.52.19-.93.25s-.78.1-1.11.1c-2.48,0-3.73-1.31-3.73-3.93v-7.64h-1.84v-.94l1.84-.81.82-2.74h1.12v2.98h3.73v1.51h-3.73v7.56c0,.77.18,1.37.55,1.78.37.41.87.62,1.51.62Z"/>
    <path class="cls-1" d="M506.24,2368.33h-3.27v11.33h-1.95v-11.33h-2.3v-.88l2.3-.7v-.71c0-3.16,1.38-4.73,4.14-4.73.68,0,1.48.14,2.39.41l-.5,1.56c-.75-.24-1.39-.36-1.92-.36-.74,0-1.28.24-1.63.73s-.53,1.27-.53,2.35v.83h3.27v1.51Z"/>
    <path class="cls-1" d="M519.67,2373.23c0,2.09-.53,3.73-1.58,4.9s-2.51,1.76-4.37,1.76c-1.15,0-2.17-.27-3.06-.81s-1.58-1.31-2.06-2.32c-.49-1.01-.73-2.19-.73-3.54,0-2.09.52-3.72,1.57-4.89,1.05-1.17,2.5-1.75,4.36-1.75s3.22.6,4.28,1.79c1.06,1.2,1.59,2.81,1.59,4.85ZM509.89,2373.23c0,1.64.33,2.89.98,3.75s1.62,1.29,2.89,1.29,2.24-.43,2.9-1.28c.66-.86.99-2.11.99-3.76s-.33-2.87-.99-3.72c-.66-.85-1.63-1.27-2.92-1.27s-2.24.42-2.88,1.25c-.65.84-.97,2.08-.97,3.74Z"/>
    <path class="cls-1" d="M528.94,2366.59c.57,0,1.08.05,1.54.14l-.27,1.8c-.53-.12-1-.18-1.41-.18-1.04,0-1.93.42-2.67,1.27-.74.84-1.11,1.89-1.11,3.15v6.89h-1.95v-12.84h1.61l.22,2.38h.09c.48-.84,1.05-1.48,1.72-1.93.67-.45,1.41-.68,2.21-.68Z"/>
    <path class="cls-1" d="M547.86,2377.94h-.11c-.9,1.3-2.24,1.96-4.03,1.96-1.68,0-2.99-.57-3.92-1.72-.93-1.15-1.4-2.78-1.4-4.9s.47-3.76,1.41-4.93,2.24-1.76,3.91-1.76,3.08.63,4.01,1.9h.15l-.08-.93-.05-.9v-5.23h1.95v18.23h-1.58l-.26-1.72ZM543.97,2378.27c1.33,0,2.29-.36,2.89-1.08s.9-1.89.9-3.5v-.41c0-1.82-.3-3.12-.91-3.9-.61-.78-1.57-1.17-2.9-1.17-1.14,0-2.01.44-2.62,1.33-.61.89-.91,2.14-.91,3.76s.3,2.88.9,3.71c.6.84,1.48,1.25,2.65,1.25Z"/>
    <path class="cls-1" d="M559.25,2379.9c-1.9,0-3.4-.58-4.49-1.73-1.1-1.16-1.65-2.76-1.65-4.82s.51-3.71,1.53-4.93,2.39-1.83,4.11-1.83c1.61,0,2.88.53,3.82,1.59s1.41,2.46,1.41,4.19v1.23h-8.85c.04,1.51.42,2.65,1.14,3.43.72.78,1.74,1.17,3.05,1.17,1.38,0,2.75-.29,4.1-.87v1.73c-.69.3-1.34.51-1.95.64-.61.13-1.35.19-2.22.19ZM558.72,2368.22c-1.03,0-1.85.34-2.47,1.01-.61.67-.98,1.6-1.08,2.79h6.71c0-1.23-.27-2.17-.82-2.82-.55-.65-1.33-.98-2.34-.98Z"/>
    <path class="cls-1" d="M575.57,2376.16c0,1.2-.45,2.12-1.34,2.77s-2.14.97-3.75.97c-1.7,0-3.03-.27-3.98-.81v-1.8c.62.31,1.28.56,1.99.74.71.18,1.39.27,2.04.27,1.01,0,1.8-.16,2.34-.49.55-.32.82-.82.82-1.48,0-.5-.22-.93-.65-1.28s-1.28-.78-2.54-1.26c-1.2-.45-2.04-.83-2.55-1.17s-.88-.71-1.12-1.13-.37-.93-.37-1.51c0-1.05.42-1.87,1.28-2.48.85-.61,2.02-.91,3.5-.91,1.38,0,2.73.28,4.05.84l-.69,1.58c-1.29-.53-2.46-.8-3.5-.8-.92,0-1.62.14-2.09.43s-.7.69-.7,1.2c0,.34.09.64.26.88s.46.47.85.69c.39.22,1.14.54,2.25.95,1.52.55,2.55,1.11,3.09,1.68.53.56.8,1.27.8,2.12Z"/>
    <path class="cls-1" d="M578.57,2363.34c0-.45.11-.77.33-.98.22-.21.49-.31.82-.31s.58.11.81.32c.23.21.34.54.34.97s-.11.76-.34.98c-.23.21-.5.32-.81.32-.33,0-.6-.11-.82-.32-.22-.21-.33-.54-.33-.98ZM580.68,2379.66h-1.95v-12.84h1.95v12.84Z"/>
    <path class="cls-1" d="M595.32,2366.82v1.23l-2.38.28c.22.27.41.63.59,1.07.17.44.26.94.26,1.49,0,1.26-.43,2.26-1.29,3.01-.86.75-2.04,1.12-3.54,1.12-.38,0-.74-.03-1.08-.09-.83.44-1.24.99-1.24,1.65,0,.35.14.61.43.78.29.17.79.25,1.49.25h2.27c1.39,0,2.46.29,3.21.88.75.59,1.12,1.44,1.12,2.55,0,1.42-.57,2.51-1.71,3.25-1.14.75-2.81,1.12-4.99,1.12-1.68,0-2.98-.31-3.88-.94-.91-.62-1.37-1.51-1.37-2.65,0-.78.25-1.46.75-2.03.5-.57,1.2-.96,2.11-1.16-.33-.15-.6-.38-.83-.69s-.33-.68-.33-1.09c0-.47.12-.88.38-1.23.25-.35.64-.69,1.18-1.02-.67-.27-1.21-.74-1.62-1.39-.42-.66-.63-1.41-.63-2.25,0-1.41.42-2.49,1.27-3.25s2.04-1.14,3.59-1.14c.67,0,1.28.08,1.82.23h4.44ZM585.08,2381.82c0,.7.29,1.22.88,1.58s1.42.54,2.52.54c1.63,0,2.84-.24,3.63-.73s1.18-1.15,1.18-1.99c0-.7-.22-1.18-.64-1.45-.43-.27-1.24-.4-2.43-.4h-2.33c-.88,0-1.57.21-2.06.63s-.74,1.03-.74,1.82ZM586.13,2370.93c0,.9.25,1.58.76,2.04.51.46,1.21.69,2.12.69,1.9,0,2.85-.92,2.85-2.77s-.96-2.89-2.88-2.89c-.91,0-1.62.25-2.11.74s-.74,1.22-.74,2.19Z"/>
    <path class="cls-1" d="M606.74,2379.66v-8.31c0-1.05-.24-1.83-.71-2.34-.48-.52-1.22-.77-2.24-.77-1.34,0-2.33.36-2.95,1.09-.63.73-.94,1.93-.94,3.6v6.74h-1.95v-12.84h1.58l.32,1.76h.09c.4-.63.96-1.12,1.68-1.47.72-.35,1.52-.52,2.4-.52,1.55,0,2.71.37,3.49,1.12.78.75,1.17,1.94,1.17,3.58v8.38h-1.95Z"/>
  </g>
  <g>
    <g>
      <path class="cls-1" d="M139.64,2350.26h-22.06c-6.09,0-11.02,4.94-11.02,11.02v22.06c0,6.08,4.94,11.02,11.02,11.02h22.06c6.09,0,11.02-4.94,11.02-11.02v-22.06c0-6.09-4.93-11.02-11.02-11.02ZM139.64,2383.35h-22.06v-22.06h22.06v22.06Z"/>
      <path class="cls-1" d="M128.54,2363.19c-5,0-9.05,4.05-9.05,9.05s4.05,9.05,9.05,9.05,9.05-4.05,9.05-9.05-4.05-9.05-9.05-9.05Z"/>
    </g>
    <path class="cls-1" d="M181.52,2350.31l21.48,31.22v-24.02l-.06-5.71h-6.45v-1.49h13.84v1.49h-5.34l-.06,5.71v37.18l-.99.31-28.8-41.91v33.65l.06,5.9h6.64v1.49h-14.34v-1.49h5.71l.06-5.9v-29.24l-.06-5.71h-5.71v-1.49h14.03Z"/>
    <path class="cls-1" d="M253.16,2350.31v14.03h-1.86c-.19-2.17-.44-4.9-2.36-8.13-2.23-3.79-5.28-3.97-8.26-4.1h-3.48l-.06,5.59v28.62l.06,6.33h6.71v1.49h-20.36v-1.49h6.7l.06-6.33v-28.62l-.06-5.59h-2.86c-3.6.06-6.33.06-8.94,4.22-2.05,3.29-2.23,5.9-2.36,8.01h-1.8v-14.03h38.86Z"/>
    <path class="cls-1" d="M270.79,2350.31l21.48,31.22v-24.02l-.06-5.71h-6.46v-1.49h13.84v1.49h-5.34l-.06,5.71v37.18l-.99.31-28.8-41.91v33.65l.06,5.9h6.64v1.49h-14.34v-1.49h5.71l.06-5.9v-29.24l-.06-5.71h-5.71v-1.49h14.03Z"/>
    <path class="cls-1" d="M323.7,2350.31v1.49h-6.15l-.06,5.28v23.72c.06,6.15.19,11.98,11.73,11.98s12.41-5.09,12.6-10.62v-25.08l-.06-5.28h-6.27v-1.49h13.71v1.49h-5.4l-.06,5.28v22.6c-.06,8.13-.13,15.08-16.2,15.08-2.29,0-7.76-.25-11.23-1.68-5.53-2.36-5.65-7.2-5.71-13.16v-22.85l-.06-5.28h-5.34v-1.49h18.5Z"/>
  </g>
  <path class="cls-1" d="M376.32,2394.18c-.28,0-.5-.22-.5-.5v-42.86c0-.28.22-.5.5-.5s.5.22.5.5v42.86c0,.28-.22.5-.5.5Z"/>
</svg>