<?xml version="1.0" encoding="UTF-8"?>
<svg id="Layer_1" data-name="Layer 1" xmlns="http://www.w3.org/2000/svg" version="1.1" viewBox="0 0 1714.96 2409.45">
  <defs>
    <style>
      .cls-1 {
        fill: #0a0203;
      }

      .cls-1, .cls-2 {
        stroke: #231f20;
        stroke-miterlimit: 10;
      }

      .cls-3 {
        fill: #231f20;
      }

      .cls-3, .cls-4 {
        stroke-width: 0px;
      }

      .cls-4 {
        fill: #a1cf6d;
      }

      .cls-2 {
        fill: #fff;
        stroke-width: 4.6px;
      }
    </style>
  </defs>
  <g>
    <g>
      <path class="cls-4" d="M510.49,1266.1c-4.05-.55-8.41-.27-11.86,1.92-3.45,2.19-5.65,6.68-4.27,10.52l-.85,2.7c-4.94-.17-8.94,4.91-8.94,9.85,0,4.45,2.09,12.32,10.14,12.32,3.41,0,1.07,5.38,3.95,7.2l1.47-.41c.58,3.5,2.98,6.59,6.11,8.27s6.91,1.97,10.34,1.07c1.43-.38,2.28-.89,3.43-1.83.15-.13.49-.51.68-.62.06-.03.12-.05.18-.02.84.37,4.69,1.96,7.03.97,2.65-1.11,4.44-3.59,5.95-6.03,1.62-2.62,3.1-5.44,3.36-8.5l1.94,1.36c1.49,1.42,4.16.54,5.25-1.2s1.05-3.94.93-5.99c-.13-2.19-.41-4.58-1.98-6.1-2.02-1.95-5.23-1.65-8-1.23l2.55-3.3c1.68-2.28,1.64-5.67-.09-7.91-1.73-2.24-5-3.13-7.63-2.07l.34-.28c.36-3.47.62-7.31-1.49-10.09-2.36-3.11-6.85-3.67-10.72-3.12-2.51.36-5.06,1.13-6.94,2.83s-2.93,4.51-2,6.87"/>
      <path class="cls-3" d="M510.49,1263.6c-4.92-.64-10.25-.06-14.26,3.09-3.68,2.88-5.79,7.95-4.28,12.52v-1.33l-.85,2.7,2.41-1.84c-4.38-.04-8.24,2.85-10.08,6.72-1.55,3.25-1.62,6.77-.78,10.22.78,3.21,2.47,6.17,5.15,8.14,1.43,1.05,3.14,1.68,4.89,1.93.56.08,1.11.14,1.67.16-.11,0,.59.03.6.02-.06.07-.4-.06-.46-.11-.19-.14-.22-.25-.37-.39.24.23.05.11,0-.08.08.35.19.7.26,1.06.01.08.07.48,0,.05.03.21.05.41.08.62.07.51.13,1.03.23,1.53.18.88.5,1.76,1,2.51.82,1.22,2.08,2.23,3.63,1.91.5-.1.98-.27,1.47-.41l-3.08-1.75c.96,5.2,5.05,9.33,10,10.92,2.74.87,5.68.93,8.48.4,1.25-.24,2.5-.63,3.6-1.27.98-.57,1.76-1.36,2.64-2.06l-1.77.73.18-.02-1.26-.34c1.84.8,3.72,1.42,5.73,1.6,2.67.23,4.98-.94,6.91-2.7s3.3-3.98,4.55-6.18c1.52-2.64,2.6-5.39,2.91-8.44l-3.76,2.16c.63.44,1.26.87,1.88,1.32-.58-.42.27.24.54.4.35.2.74.38,1.13.48.91.25,1.87.26,2.79.06,3.87-.81,5.51-4.56,5.6-8.17.08-3.37-.23-7.45-2.77-9.95-2.79-2.75-6.89-2.4-10.43-1.87l2.82,3.67c2.13-2.77,4.39-5.29,4.09-9.08-.46-5.85-6.48-9.93-12.09-7.87l2.43,4.18c1.47-1.2,1.3-3.8,1.32-5.59.02-2.12-.26-4.23-1.13-6.17-1.68-3.76-5.39-5.61-9.31-6.07s-8.19.25-11.45,2.29c-3.5,2.2-5.86,6.52-4.42,10.65.45,1.27,1.71,2.12,3.08,1.75,1.24-.34,2.19-1.8,1.75-3.08-.82-2.34.8-4.33,2.81-5.39,2.21-1.17,5.05-1.47,7.51-1.28,2.13.16,4.35,1.01,5.39,2.99,1.22,2.34.78,5.35.53,7.86l.73-1.77-.34.28c-1.91,1.57.14,5.02,2.43,4.18,3.09-1.13,6.4,1.13,5.7,4.58-.38,1.86-2.23,3.57-3.35,5.03-.59.77-.35,2.09.2,2.78.68.85,1.59,1.05,2.63.9,1.66-.25,4.2-.68,5.57.59,1.44,1.33,1.31,4.22,1.31,6,0,.99-.02,2.23-.65,3.07-.15.2-.4.42-.71.55,0,0-.8.14-.46.14.17,0-.36-.16-.18-.03.22.16-.31-.23-.49-.37-.16-.12-.33-.23-.49-.35l-1.44-1.01c-1.71-1.2-3.59.46-3.76,2.16-.23,2.19-1.25,4.23-2.34,6.1-1.03,1.78-2.13,3.57-3.66,4.97-1.28,1.17-2.41,1.47-4.06,1.11-.78-.17-1.54-.42-2.29-.7-.14-.05-.27-.1-.4-.16.33.14.38.16.17.07-.61-.26-1.12-.39-1.77-.28-.99.18-1.48.8-2.21,1.39-.66.55-1.41.89-2.23,1.11-2.03.55-4.22.56-6.25.02-3.68-.99-6.43-3.85-7.12-7.6-.24-1.33-1.86-2.08-3.08-1.75l-1.47.41,1.93.25c.14.1-.07-.09-.04-.06-.07-.08-.14-.22-.17-.31.02.05.12.31.03.03s-.16-.56-.21-.84c-.02-.12-.04-.25-.06-.37-.07-.42.04.34-.01-.08-.18-1.31-.25-2.67-.95-3.84-1.61-2.7-5.01-1.65-7.14-2.82-1.8-.99-2.97-2.8-3.58-4.72-.17-.52-.3-1.04-.42-1.57-.05-.24-.09-.47-.14-.71-.02-.12-.04-.23-.06-.35.07.49,0-.03,0-.13-.09-1.12-.14-2.22.13-3.32.73-2.9,3.07-5.65,6.22-5.62,1.13.01,2.08-.79,2.41-1.84.39-1.23,1.14-2.72.85-4.03-.45-2.07-.29-3.73.93-5.55,2.75-4.1,8.38-4.3,12.79-3.73,1.34.17,2.5-1.27,2.5-2.5,0-1.5-1.15-2.33-2.5-2.5h0Z"/>
    </g>
    <g>
      <path class="cls-2" d="M500.2,1280.39c-1.99,4.55-1.73,11.65-1.82,15.54.08,1.17.94,2.64,2.01,3.08.89.44,1.69.53,2.78.54,2.4.01,4.65-1.31,5.68-3.47.56-1.19.9-2.48,1.26-3.64.36-1.66.97-4.21,1.22-6.81-3.45-2.46-7.13-4.52-11.13-5.22Z"/>
      <path class="cls-1" d="M508.47,1305.27c-.62.06-1.05.64-.92,1.25.15.71.46,1.59,1.11,2.41,1.48,1.86,3.71,2.17,4.88,2.19.44,0,.87-.18,1.14-.53,1.88-2.39,4.6-4.26,7.66-5.82.47-.24.25-.95-.27-.89-4.54.46-9.07.93-13.61,1.39Z"/>
      <path class="cls-4" d="M507.68,1289.72c.27,2.49-2.98,3.69-3.62.94-.45-1.33.57-2.88,1.92-2.99.83.41,1.87.98,1.7,2.04Z"/>
    </g>
    <g>
      <path class="cls-2" d="M527.33,1281.36c1.99,4.55,1.73,11.65,1.82,15.54-.08,1.17-.94,2.64-2.01,3.08-1.13.56-2.31.68-3.44.31-.51-.17-1.05-.24-1.58-.33-2.73-.49-3.97-4.19-4.7-6.55-.36-1.66-.97-4.21-1.22-6.81,3.45-2.46,7.13-4.52,11.13-5.22Z"/>
      <path class="cls-4" d="M519.86,1290.69c-.27,2.49,2.98,3.69,3.62.94.45-1.33-.57-2.88-1.92-2.99-.83.41-1.87.98-1.7,2.04Z"/>
    </g>
  </g>
  <g>
    <g>
      <path class="cls-4" d="M629.25,1355.27c-4.05-.55-8.41-.27-11.86,1.92-3.45,2.19-5.65,6.68-4.27,10.52l-.85,2.7c-4.94-.17-8.94,4.91-8.94,9.85,0,4.45,2.09,12.32,10.14,12.32,3.41,0,1.07,5.38,3.95,7.2l1.47-.41c.58,3.5,2.98,6.59,6.11,8.27s6.91,1.97,10.34,1.07c1.43-.38,2.28-.89,3.43-1.83.15-.13.49-.51.68-.62.06-.03.12-.05.18-.02.84.37,4.69,1.96,7.03.97,2.65-1.11,4.44-3.59,5.95-6.03,1.62-2.62,3.1-5.44,3.36-8.5l1.94,1.36c1.49,1.42,4.16.54,5.25-1.2,1.09-1.74,1.05-3.94.93-5.99-.13-2.19-.41-4.58-1.98-6.1-2.02-1.95-5.23-1.65-8-1.23l2.55-3.3c1.68-2.28,1.64-5.67-.09-7.91-1.73-2.24-5-3.13-7.63-2.07l.34-.28c.36-3.47.62-7.31-1.49-10.09-2.36-3.11-6.85-3.67-10.72-3.12-2.51.36-5.06,1.13-6.94,2.83-1.88,1.7-2.93,4.51-2,6.87"/>
      <path class="cls-3" d="M629.25,1352.77c-4.92-.64-10.25-.06-14.26,3.09-3.68,2.88-5.79,7.95-4.28,12.52v-1.33l-.85,2.7,2.41-1.84c-4.38-.04-8.24,2.85-10.08,6.72-1.55,3.25-1.62,6.77-.78,10.22.78,3.21,2.47,6.17,5.15,8.14,1.43,1.05,3.14,1.68,4.89,1.93.56.08,1.11.14,1.67.16-.11,0,.59.03.6.02-.06.07-.4-.06-.46-.11-.19-.14-.22-.25-.37-.39.24.23.05.11,0-.08.08.35.19.7.26,1.06.01.08.07.48,0,.05.03.21.05.41.08.62.07.51.13,1.03.23,1.53.18.88.5,1.76,1,2.51.82,1.22,2.08,2.23,3.63,1.91.5-.1.98-.27,1.47-.41l-3.08-1.75c.96,5.2,5.05,9.33,10,10.92,2.74.87,5.68.93,8.48.4,1.25-.24,2.5-.63,3.6-1.27.98-.57,1.76-1.36,2.64-2.06l-1.77.73.18-.02-1.26-.34c1.84.8,3.72,1.42,5.73,1.6,2.67.23,4.98-.94,6.91-2.7s3.3-3.98,4.55-6.18c1.52-2.64,2.6-5.39,2.91-8.44l-3.76,2.16c.63.44,1.26.87,1.88,1.32-.58-.42.27.24.54.4.35.2.74.38,1.13.48.91.25,1.87.26,2.79.06,3.87-.81,5.51-4.56,5.6-8.17.08-3.37-.23-7.45-2.77-9.95-2.79-2.75-6.89-2.4-10.43-1.87l2.82,3.67c2.13-2.77,4.39-5.29,4.09-9.08-.46-5.85-6.48-9.93-12.09-7.87l2.43,4.18c1.47-1.2,1.3-3.8,1.32-5.59.02-2.12-.26-4.23-1.13-6.17-1.68-3.76-5.39-5.61-9.31-6.07s-8.19.25-11.45,2.29c-3.5,2.2-5.86,6.52-4.42,10.65.45,1.27,1.71,2.12,3.08,1.75,1.24-.34,2.19-1.8,1.75-3.08-.82-2.34.8-4.33,2.81-5.39,2.21-1.17,5.05-1.47,7.51-1.28,2.13.16,4.35,1.01,5.39,2.99,1.22,2.34.78,5.35.53,7.86l.73-1.77-.34.28c-1.91,1.57.14,5.02,2.43,4.18,3.09-1.13,6.4,1.13,5.7,4.58-.38,1.86-2.23,3.57-3.35,5.03-.59.77-.35,2.09.2,2.78.68.85,1.59,1.05,2.63.9,1.66-.25,4.2-.68,5.57.59,1.44,1.33,1.31,4.22,1.31,6,0,.99-.02,2.23-.65,3.07-.15.2-.4.42-.71.55,0,0-.8.14-.46.14.17,0-.36-.16-.18-.03.22.16-.31-.23-.49-.37-.16-.12-.33-.23-.49-.35l-1.44-1.01c-1.71-1.2-3.59.46-3.76,2.16-.23,2.19-1.25,4.23-2.34,6.1-1.03,1.78-2.13,3.57-3.66,4.97-1.28,1.17-2.41,1.47-4.06,1.11-.78-.17-1.54-.42-2.29-.7-.14-.05-.27-.1-.4-.16.33.14.38.16.17.07-.61-.26-1.12-.39-1.77-.28-.99.18-1.48.8-2.21,1.39-.66.55-1.41.89-2.23,1.11-2.03.55-4.22.56-6.25.02-3.68-.99-6.43-3.85-7.12-7.6-.24-1.33-1.86-2.08-3.08-1.75l-1.47.41,1.93.25c.14.1-.07-.09-.04-.06-.07-.08-.14-.22-.17-.31.02.05.12.31.03.03s-.16-.56-.21-.84c-.02-.12-.04-.25-.06-.37-.07-.42.04.34-.01-.08-.18-1.31-.25-2.67-.95-3.84-1.61-2.7-5.01-1.65-7.14-2.82-1.8-.99-2.97-2.8-3.58-4.72-.17-.52-.3-1.04-.42-1.57-.05-.24-.09-.47-.14-.71-.02-.12-.04-.23-.06-.35.07.49,0-.03,0-.13-.09-1.12-.14-2.22.13-3.32.73-2.9,3.07-5.65,6.22-5.62,1.13.01,2.08-.79,2.41-1.84.39-1.23,1.14-2.72.85-4.03-.45-2.07-.29-3.73.93-5.55,2.75-4.1,8.38-4.3,12.79-3.73,1.34.17,2.5-1.27,2.5-2.5,0-1.5-1.15-2.33-2.5-2.5h0Z"/>
    </g>
    <g>
      <path class="cls-2" d="M618.97,1369.56c-1.99,4.55-1.73,11.65-1.82,15.54.08,1.17.94,2.64,2.01,3.08.89.44,1.69.53,2.78.54,2.4.01,4.65-1.31,5.68-3.47.56-1.19.9-2.48,1.26-3.64.36-1.66.97-4.21,1.22-6.81-3.45-2.46-7.13-4.52-11.13-5.22Z"/>
      <path class="cls-1" d="M627.23,1394.44c-.62.06-1.05.64-.92,1.25.15.71.46,1.59,1.11,2.41,1.48,1.86,3.71,2.17,4.88,2.19.44,0,.87-.18,1.14-.53,1.88-2.39,4.6-4.26,7.66-5.82.47-.24.25-.95-.27-.89-4.54.46-9.07.93-13.61,1.39Z"/>
      <path class="cls-4" d="M626.44,1378.9c.27,2.49-2.98,3.69-3.62.94-.45-1.33.57-2.88,1.92-2.99.83.41,1.87.98,1.7,2.04Z"/>
    </g>
    <g>
      <path class="cls-2" d="M646.1,1370.53c1.99,4.55,1.73,11.65,1.82,15.54-.08,1.17-.94,2.64-2.01,3.08-1.13.56-2.31.68-3.44.31-.51-.17-1.05-.24-1.58-.33-2.73-.49-3.97-4.19-4.7-6.55-.36-1.66-.97-4.21-1.22-6.81,3.45-2.46,7.13-4.52,11.13-5.22Z"/>
      <path class="cls-4" d="M638.63,1379.87c-.27,2.49,2.98,3.69,3.62.94.45-1.33-.57-2.88-1.92-2.99-.83.41-1.87.98-1.7,2.04Z"/>
    </g>
  </g>
  <g>
    <g>
      <path class="cls-4" d="M246.67,1309.63c-4.05-.55-8.41-.27-11.86,1.92-3.45,2.19-5.65,6.68-4.27,10.52l-.85,2.7c-4.94-.17-8.94,4.91-8.94,9.85,0,4.45,2.09,12.32,10.14,12.32,3.41,0,1.07,5.38,3.95,7.2l1.47-.41c.58,3.5,2.98,6.59,6.11,8.27,3.13,1.67,6.91,1.97,10.34,1.07,1.43-.38,2.28-.89,3.43-1.83.15-.13.49-.51.68-.62.06-.03.12-.05.18-.02.84.37,4.69,1.96,7.03.97,2.65-1.11,4.44-3.59,5.95-6.03,1.62-2.62,3.1-5.44,3.36-8.5l1.94,1.36c1.49,1.42,4.16.54,5.25-1.2s1.05-3.94.93-5.99c-.13-2.19-.41-4.58-1.98-6.1-2.02-1.95-5.23-1.65-8-1.23l2.55-3.3c1.68-2.28,1.64-5.67-.09-7.91-1.73-2.24-5-3.13-7.63-2.07l.34-.28c.36-3.47.62-7.31-1.49-10.09-2.36-3.11-6.85-3.67-10.72-3.12-2.51.36-5.06,1.13-6.94,2.83-1.88,1.7-2.93,4.51-2,6.87"/>
      <path class="cls-3" d="M246.67,1307.13c-4.92-.64-10.25-.06-14.26,3.09-3.68,2.88-5.79,7.95-4.28,12.52v-1.33l-.85,2.7,2.41-1.84c-4.38-.04-8.24,2.85-10.08,6.72-1.55,3.25-1.62,6.77-.78,10.22.78,3.21,2.47,6.17,5.15,8.14,1.43,1.05,3.14,1.68,4.89,1.93.56.08,1.11.14,1.67.16-.11,0,.59.03.6.02-.06.07-.4-.06-.46-.11-.19-.14-.22-.25-.37-.39.24.23.05.11,0-.08.08.35.19.7.26,1.06.01.08.07.48,0,.05.03.21.05.41.08.62.07.51.13,1.03.23,1.53.18.88.5,1.76,1,2.51.82,1.22,2.08,2.23,3.63,1.91.5-.1.98-.27,1.47-.41l-3.08-1.75c.96,5.2,5.05,9.33,10,10.92,2.74.87,5.68.93,8.48.4,1.25-.24,2.5-.63,3.6-1.27.98-.57,1.76-1.36,2.64-2.06l-1.77.73.18-.02-1.26-.34c1.84.8,3.72,1.42,5.73,1.6,2.67.23,4.98-.94,6.91-2.7s3.3-3.98,4.55-6.18c1.52-2.64,2.6-5.39,2.91-8.44l-3.76,2.16c.63.44,1.26.87,1.88,1.32-.58-.42.27.24.54.4.35.2.74.38,1.13.48.91.25,1.87.26,2.79.06,3.87-.81,5.51-4.56,5.6-8.17.08-3.37-.23-7.45-2.77-9.95-2.79-2.75-6.89-2.4-10.43-1.87l2.82,3.67c2.13-2.77,4.39-5.29,4.09-9.08-.46-5.85-6.48-9.93-12.09-7.87l2.43,4.18c1.47-1.2,1.3-3.8,1.32-5.59.02-2.12-.26-4.23-1.13-6.17-1.68-3.76-5.39-5.61-9.31-6.07s-8.19.25-11.45,2.29c-3.5,2.2-5.86,6.52-4.42,10.65.45,1.27,1.71,2.12,3.08,1.75,1.24-.34,2.19-1.8,1.75-3.08-.82-2.34.8-4.33,2.81-5.39,2.21-1.17,5.05-1.47,7.51-1.28,2.13.16,4.35,1.01,5.39,2.99,1.22,2.34.78,5.35.53,7.86l.73-1.77-.34.28c-1.91,1.57.14,5.02,2.43,4.18,3.09-1.13,6.4,1.13,5.7,4.58-.38,1.86-2.23,3.57-3.35,5.03-.59.77-.35,2.09.2,2.78.68.85,1.59,1.05,2.63.9,1.66-.25,4.2-.68,5.57.59,1.44,1.33,1.31,4.22,1.31,6,0,.99-.02,2.23-.65,3.07-.15.2-.4.42-.71.55,0,0-.8.14-.46.14.17,0-.36-.16-.18-.03.22.16-.31-.23-.49-.37-.16-.12-.33-.23-.49-.35l-1.44-1.01c-1.71-1.2-3.59.46-3.76,2.16-.23,2.19-1.25,4.23-2.34,6.1-1.03,1.78-2.13,3.57-3.66,4.97-1.28,1.17-2.41,1.47-4.06,1.11-.78-.17-1.54-.42-2.29-.7-.14-.05-.27-.1-.4-.16.33.14.38.16.17.07-.61-.26-1.12-.39-1.77-.28-.99.18-1.48.8-2.21,1.39-.66.55-1.41.89-2.23,1.11-2.03.55-4.22.56-6.25.02-3.68-.99-6.43-3.85-7.12-7.6-.24-1.33-1.86-2.08-3.08-1.75l-1.47.41,1.93.25c.14.1-.07-.09-.04-.06-.07-.08-.14-.22-.17-.31.02.05.12.31.03.03s-.16-.56-.21-.84c-.02-.12-.04-.25-.06-.37-.07-.42.04.34-.01-.08-.18-1.31-.25-2.67-.95-3.84-1.61-2.7-5.01-1.65-7.14-2.82-1.8-.99-2.97-2.8-3.58-4.72-.17-.52-.3-1.04-.42-1.57-.05-.24-.09-.47-.14-.71-.02-.12-.04-.23-.06-.35.07.49,0-.03,0-.13-.09-1.12-.14-2.22.13-3.32.73-2.9,3.07-5.65,6.22-5.62,1.13.01,2.08-.79,2.41-1.84.39-1.23,1.14-2.72.85-4.03-.45-2.07-.29-3.73.93-5.55,2.75-4.1,8.38-4.3,12.79-3.73,1.34.17,2.5-1.27,2.5-2.5,0-1.5-1.15-2.33-2.5-2.5h0Z"/>
    </g>
    <g>
      <path class="cls-2" d="M236.39,1323.93c-1.99,4.55-1.73,11.65-1.82,15.54.08,1.17.94,2.64,2.01,3.08.89.44,1.69.53,2.78.54,2.4.01,4.65-1.31,5.68-3.47.56-1.19.9-2.48,1.26-3.64.36-1.66.97-4.21,1.22-6.81-3.45-2.46-7.13-4.52-11.13-5.22Z"/>
      <path class="cls-1" d="M244.65,1348.8c-.62.06-1.05.64-.92,1.25.15.71.46,1.59,1.11,2.41,1.48,1.86,3.71,2.17,4.88,2.19.44,0,.87-.18,1.14-.53,1.88-2.39,4.6-4.26,7.66-5.82.47-.24.25-.95-.27-.89-4.54.46-9.07.93-13.61,1.39Z"/>
      <path class="cls-4" d="M243.86,1333.26c.27,2.49-2.98,3.69-3.62.94-.45-1.33.57-2.88,1.92-2.99.83.41,1.87.98,1.7,2.04Z"/>
    </g>
    <g>
      <path class="cls-2" d="M263.52,1324.9c1.99,4.55,1.73,11.65,1.82,15.54-.08,1.17-.94,2.64-2.01,3.08-1.13.56-2.31.68-3.44.31-.51-.17-1.05-.24-1.58-.33-2.73-.49-3.97-4.19-4.7-6.55-.36-1.66-.97-4.21-1.22-6.81,3.45-2.46,7.13-4.52,11.13-5.22Z"/>
      <path class="cls-4" d="M256.04,1334.23c-.27,2.49,2.98,3.69,3.62.94.45-1.33-.57-2.88-1.92-2.99-.83.41-1.87.98-1.7,2.04Z"/>
    </g>
  </g>
  <g>
    <g>
      <path class="cls-4" d="M660.89,1221.89c-4.05-.55-8.41-.27-11.86,1.92-3.45,2.19-5.65,6.68-4.27,10.52l-.85,2.7c-4.94-.17-8.94,4.91-8.94,9.85,0,4.45,2.09,12.32,10.14,12.32,3.41,0,1.07,5.38,3.95,7.2l1.47-.41c.58,3.5,2.98,6.59,6.11,8.27,3.13,1.67,6.91,1.97,10.34,1.07,1.43-.38,2.28-.89,3.43-1.83.15-.13.49-.51.68-.62.06-.03.12-.05.18-.02.84.37,4.69,1.96,7.03.97,2.65-1.11,4.44-3.59,5.95-6.03,1.62-2.62,3.1-5.44,3.36-8.5l1.94,1.36c1.49,1.42,4.16.54,5.25-1.2s1.05-3.94.93-5.99c-.13-2.19-.41-4.58-1.98-6.1-2.02-1.95-5.23-1.65-8-1.23l2.55-3.3c1.68-2.28,1.64-5.67-.09-7.91s-5-3.13-7.63-2.07l.34-.28c.36-3.47.62-7.31-1.49-10.09-2.36-3.11-6.85-3.67-10.72-3.12-2.51.36-5.06,1.13-6.94,2.83s-2.93,4.51-2,6.87"/>
      <path class="cls-3" d="M660.89,1219.39c-4.92-.64-10.25-.06-14.26,3.09-3.68,2.88-5.79,7.95-4.28,12.52v-1.33c-.28.9-.57,1.8-.85,2.7l2.41-1.84c-4.38-.04-8.24,2.85-10.08,6.72-1.55,3.25-1.62,6.77-.78,10.22.78,3.21,2.47,6.17,5.15,8.14,1.43,1.05,3.14,1.68,4.89,1.93.56.08,1.11.14,1.67.16-.11,0,.59.03.6.02-.06.07-.4-.06-.46-.11-.19-.14-.22-.25-.37-.39.24.23.05.11,0-.08.08.35.19.7.26,1.06.01.08.07.48,0,.05.03.21.05.41.08.62.07.51.13,1.03.23,1.53.18.88.5,1.76,1,2.51.82,1.22,2.08,2.23,3.63,1.91.5-.1.98-.27,1.47-.41l-3.08-1.75c.96,5.2,5.05,9.33,10,10.92,2.74.87,5.68.93,8.48.4,1.25-.24,2.5-.63,3.6-1.27.98-.57,1.76-1.36,2.64-2.06l-1.77.73.18-.02-1.26-.34c1.84.8,3.72,1.42,5.73,1.6,2.67.23,4.98-.94,6.91-2.7s3.3-3.98,4.55-6.18c1.52-2.64,2.6-5.39,2.91-8.44l-3.76,2.16c.63.44,1.26.87,1.88,1.32-.58-.42.27.24.54.4.35.2.74.38,1.13.48.91.25,1.87.26,2.79.06,3.87-.81,5.51-4.56,5.6-8.17.08-3.37-.23-7.45-2.77-9.95-2.79-2.75-6.89-2.4-10.43-1.87l2.82,3.67c2.13-2.77,4.39-5.29,4.09-9.08-.46-5.85-6.48-9.93-12.09-7.87l2.43,4.18c1.47-1.2,1.3-3.8,1.32-5.59.02-2.12-.26-4.23-1.13-6.17-1.68-3.76-5.39-5.61-9.31-6.07s-8.19.25-11.45,2.29c-3.5,2.2-5.86,6.52-4.42,10.65.45,1.27,1.71,2.12,3.08,1.75,1.24-.34,2.19-1.8,1.75-3.08-.82-2.34.8-4.33,2.81-5.39,2.21-1.17,5.05-1.47,7.51-1.28,2.13.16,4.35,1.01,5.39,2.99,1.22,2.34.78,5.35.53,7.86l.73-1.77-.34.28c-1.91,1.57.14,5.02,2.43,4.18,3.09-1.13,6.4,1.13,5.7,4.58-.38,1.86-2.23,3.57-3.35,5.03-.59.77-.35,2.09.2,2.78.68.85,1.59,1.05,2.63.9,1.66-.25,4.2-.68,5.57.59,1.44,1.33,1.31,4.22,1.31,6,0,.99-.02,2.23-.65,3.07-.15.2-.4.42-.71.55,0,0-.8.14-.46.14.17,0-.36-.16-.18-.03.22.16-.31-.23-.49-.37-.16-.12-.33-.23-.49-.35l-1.44-1.01c-1.71-1.2-3.59.46-3.76,2.16-.23,2.19-1.25,4.23-2.34,6.1-1.03,1.78-2.13,3.57-3.66,4.97-1.28,1.17-2.41,1.47-4.06,1.11-.78-.17-1.54-.42-2.29-.7-.14-.05-.27-.1-.4-.16.33.14.38.16.17.07-.61-.26-1.12-.39-1.77-.28-.99.18-1.48.8-2.21,1.39-.66.55-1.41.89-2.23,1.11-2.03.55-4.22.56-6.25.02-3.68-.99-6.43-3.85-7.12-7.6-.24-1.33-1.86-2.08-3.08-1.75l-1.47.41,1.93.25c.14.1-.07-.09-.04-.06-.07-.08-.14-.22-.17-.31.02.05.12.31.03.03s-.16-.56-.21-.84c-.02-.12-.04-.25-.06-.37-.07-.42.04.34-.01-.08-.18-1.31-.25-2.67-.95-3.84-1.61-2.7-5.01-1.65-7.14-2.82-1.8-.99-2.97-2.8-3.58-4.72-.17-.52-.3-1.04-.42-1.57-.05-.24-.09-.47-.14-.71-.02-.12-.04-.23-.06-.35.07.49,0-.03,0-.13-.09-1.12-.14-2.22.13-3.32.73-2.9,3.07-5.65,6.22-5.62,1.13.01,2.08-.79,2.41-1.84.39-1.23,1.14-2.72.85-4.03-.45-2.07-.29-3.73.93-5.55,2.75-4.1,8.38-4.3,12.79-3.73,1.34.17,2.5-1.27,2.5-2.5,0-1.5-1.15-2.33-2.5-2.5h0Z"/>
    </g>
    <g>
      <path class="cls-2" d="M650.6,1236.19c-1.99,4.55-1.73,11.65-1.82,15.54.08,1.17.94,2.64,2.01,3.08.89.44,1.69.53,2.78.54,2.4.01,4.65-1.31,5.68-3.47.56-1.19.9-2.48,1.26-3.64.36-1.66.97-4.21,1.22-6.81-3.45-2.46-7.13-4.52-11.13-5.22Z"/>
      <path class="cls-1" d="M658.87,1261.07c-.62.06-1.05.64-.92,1.25.15.71.46,1.59,1.11,2.41,1.48,1.86,3.71,2.17,4.88,2.19.44,0,.87-.18,1.14-.53,1.88-2.39,4.6-4.26,7.66-5.82.47-.24.25-.95-.27-.89-4.54.46-9.07.93-13.61,1.39Z"/>
      <path class="cls-4" d="M658.08,1245.52c.27,2.49-2.98,3.69-3.62.94-.45-1.33.57-2.88,1.92-2.99.83.41,1.87.98,1.7,2.04Z"/>
    </g>
    <g>
      <path class="cls-2" d="M677.73,1237.16c1.99,4.55,1.73,11.65,1.82,15.54-.08,1.17-.94,2.64-2.01,3.08-1.13.56-2.31.68-3.44.31-.51-.17-1.05-.24-1.58-.33-2.73-.49-3.97-4.19-4.7-6.55-.36-1.66-.97-4.21-1.22-6.81,3.45-2.46,7.13-4.52,11.13-5.22Z"/>
      <path class="cls-4" d="M670.26,1246.49c-.27,2.49,2.98,3.69,3.62.94.45-1.33-.57-2.88-1.92-2.99-.83.41-1.87.98-1.7,2.04Z"/>
    </g>
  </g>
  <g>
    <g>
      <path class="cls-4" d="M798.28,1165.25c-4.05-.55-8.41-.27-11.86,1.92-3.45,2.19-5.65,6.68-4.27,10.52l-.85,2.7c-4.94-.17-8.94,4.91-8.94,9.85,0,4.45,2.09,12.32,10.14,12.32,3.41,0,1.07,5.38,3.95,7.2l1.47-.41c.58,3.5,2.98,6.59,6.11,8.27s6.91,1.97,10.34,1.07c1.43-.38,2.28-.89,3.43-1.83.15-.13.49-.51.68-.62.06-.03.12-.05.18-.02.84.37,4.69,1.96,7.03.97,2.65-1.11,4.44-3.59,5.95-6.03,1.62-2.62,3.1-5.44,3.36-8.5l1.94,1.36c1.49,1.42,4.16.54,5.25-1.2,1.09-1.74,1.05-3.94.93-5.99-.13-2.19-.41-4.58-1.98-6.1-2.02-1.95-5.23-1.65-8-1.23l2.55-3.3c1.68-2.28,1.64-5.67-.09-7.91-1.73-2.24-5-3.13-7.63-2.07l.34-.28c.36-3.47.62-7.31-1.49-10.09-2.36-3.11-6.85-3.67-10.72-3.12-2.51.36-5.06,1.13-6.94,2.83-1.88,1.7-2.93,4.51-2,6.87"/>
      <path class="cls-3" d="M798.28,1162.75c-4.92-.64-10.25-.06-14.26,3.09-3.68,2.88-5.79,7.95-4.28,12.52v-1.33c-.28.9-.57,1.8-.85,2.7l2.41-1.84c-4.38-.04-8.24,2.85-10.08,6.72-1.55,3.25-1.62,6.77-.78,10.22.78,3.21,2.47,6.17,5.15,8.14,1.43,1.05,3.14,1.68,4.89,1.93.56.08,1.11.14,1.67.16-.11,0,.59.03.6.02-.06.07-.4-.06-.46-.11-.19-.14-.22-.25-.37-.39.24.23.05.11,0-.08.08.35.19.7.26,1.06.01.08.07.48,0,.05.03.21.05.41.08.62.07.51.13,1.03.23,1.53.18.88.5,1.76,1,2.51.82,1.22,2.08,2.23,3.63,1.91.5-.1.98-.27,1.47-.41l-3.08-1.75c.96,5.2,5.05,9.33,10,10.92,2.74.87,5.68.93,8.48.4,1.25-.24,2.5-.63,3.6-1.27.98-.57,1.76-1.36,2.64-2.06l-1.77.73.18-.02-1.26-.34c1.84.8,3.72,1.42,5.73,1.6,2.67.23,4.98-.94,6.91-2.7s3.3-3.98,4.55-6.18c1.52-2.64,2.6-5.39,2.91-8.44l-3.76,2.16c.63.44,1.26.87,1.88,1.32-.58-.42.27.24.54.4.35.2.74.38,1.13.48.91.25,1.87.26,2.79.06,3.87-.81,5.51-4.56,5.6-8.17.08-3.37-.23-7.45-2.77-9.95-2.79-2.75-6.89-2.4-10.43-1.87l2.82,3.67c2.13-2.77,4.39-5.29,4.09-9.08-.46-5.85-6.48-9.93-12.09-7.87l2.43,4.18c1.47-1.2,1.3-3.8,1.32-5.59.02-2.12-.26-4.23-1.13-6.17-1.68-3.76-5.39-5.61-9.31-6.07s-8.19.25-11.45,2.29c-3.5,2.2-5.86,6.52-4.42,10.65.45,1.27,1.71,2.12,3.08,1.75,1.24-.34,2.19-1.8,1.75-3.08-.82-2.34.8-4.33,2.81-5.39,2.21-1.17,5.05-1.47,7.51-1.28,2.13.16,4.35,1.01,5.39,2.99,1.22,2.34.78,5.35.53,7.86l.73-1.77-.34.28c-1.91,1.57.14,5.02,2.43,4.18,3.09-1.13,6.4,1.13,5.7,4.58-.38,1.86-2.23,3.57-3.35,5.03-.59.77-.35,2.09.2,2.78.68.85,1.59,1.05,2.63.9,1.66-.25,4.2-.68,5.57.59,1.44,1.33,1.31,4.22,1.31,6,0,.99-.02,2.23-.65,3.07-.15.2-.4.42-.71.55,0,0-.8.14-.46.14.17,0-.36-.16-.18-.03.22.16-.31-.23-.49-.37-.16-.12-.33-.23-.49-.35l-1.44-1.01c-1.71-1.2-3.59.46-3.76,2.16-.23,2.19-1.25,4.23-2.34,6.1-1.03,1.78-2.13,3.57-3.66,4.97-1.28,1.17-2.41,1.47-4.06,1.11-.78-.17-1.54-.42-2.29-.7-.14-.05-.27-.1-.4-.16.33.14.38.16.17.07-.61-.26-1.12-.39-1.77-.28-.99.18-1.48.8-2.21,1.39-.66.55-1.41.89-2.23,1.11-2.03.55-4.22.56-6.25.02-3.68-.99-6.43-3.85-7.12-7.6-.24-1.33-1.86-2.08-3.08-1.75l-1.47.41,1.93.25c.14.1-.07-.09-.04-.06-.07-.08-.14-.22-.17-.31.02.05.12.31.03.03s-.16-.56-.21-.84c-.02-.12-.04-.25-.06-.37-.07-.42.04.34-.01-.08-.18-1.31-.25-2.67-.95-3.84-1.61-2.7-5.01-1.65-7.14-2.82-1.8-.99-2.97-2.8-3.58-4.72-.17-.52-.3-1.04-.42-1.57-.05-.24-.09-.47-.14-.71-.02-.12-.04-.23-.06-.35.07.49,0-.03,0-.13-.09-1.12-.14-2.22.13-3.32.73-2.9,3.07-5.65,6.22-5.62,1.13.01,2.08-.79,2.41-1.84.39-1.23,1.14-2.72.85-4.03-.45-2.07-.29-3.73.93-5.55,2.75-4.1,8.38-4.3,12.79-3.73,1.34.17,2.5-1.27,2.5-2.5,0-1.5-1.15-2.33-2.5-2.5h0Z"/>
    </g>
    <g>
      <path class="cls-2" d="M788,1179.54c-1.99,4.55-1.73,11.65-1.82,15.54.08,1.17.94,2.64,2.01,3.08.89.44,1.69.53,2.78.54,2.4.01,4.65-1.31,5.68-3.47.56-1.19.9-2.48,1.26-3.64.36-1.66.97-4.21,1.22-6.81-3.45-2.46-7.13-4.52-11.13-5.22Z"/>
      <path class="cls-1" d="M796.26,1204.42c-.62.06-1.05.64-.92,1.25.15.71.46,1.59,1.11,2.41,1.48,1.86,3.71,2.17,4.88,2.19.44,0,.87-.18,1.14-.53,1.88-2.39,4.6-4.26,7.66-5.82.47-.24.25-.95-.27-.89-4.54.46-9.07.93-13.61,1.39Z"/>
      <path class="cls-4" d="M795.47,1188.87c.27,2.49-2.98,3.69-3.62.94-.45-1.33.57-2.88,1.92-2.99.83.41,1.87.98,1.7,2.04Z"/>
    </g>
    <g>
      <path class="cls-2" d="M815.13,1180.51c1.99,4.55,1.73,11.65,1.82,15.54-.08,1.17-.94,2.64-2.01,3.08-1.13.56-2.31.68-3.44.31-.51-.17-1.05-.24-1.58-.33-2.73-.49-3.97-4.19-4.7-6.55-.36-1.66-.97-4.21-1.22-6.81,3.45-2.46,7.13-4.52,11.13-5.22Z"/>
      <path class="cls-4" d="M807.66,1189.84c-.27,2.49,2.98,3.69,3.62.94.45-1.33-.57-2.88-1.92-2.99-.83.41-1.87.98-1.7,2.04Z"/>
    </g>
  </g>
  <g>
    <g>
      <path class="cls-4" d="M1292.41,1162.18c-4.05-.55-8.41-.27-11.86,1.92-3.45,2.19-5.65,6.68-4.27,10.52l-.85,2.7c-4.94-.17-8.94,4.91-8.94,9.85,0,4.45,2.09,12.32,10.14,12.32,3.41,0,1.07,5.38,3.95,7.2l1.47-.41c.58,3.5,2.98,6.59,6.11,8.27,3.13,1.67,6.91,1.97,10.34,1.07,1.43-.38,2.28-.89,3.43-1.83.15-.13.49-.51.68-.62.06-.03.12-.05.18-.02.84.37,4.69,1.96,7.03.97,2.65-1.11,4.44-3.59,5.95-6.03,1.62-2.62,3.1-5.44,3.36-8.5l1.94,1.36c1.49,1.42,4.16.54,5.25-1.2,1.09-1.74,1.05-3.94.93-5.99-.13-2.19-.41-4.58-1.98-6.1-2.02-1.95-5.23-1.65-8-1.23l2.55-3.3c1.68-2.28,1.64-5.67-.09-7.91s-5-3.13-7.63-2.07l.34-.28c.36-3.47.62-7.31-1.49-10.09-2.36-3.11-6.85-3.67-10.72-3.12-2.51.36-5.06,1.13-6.94,2.83-1.88,1.7-2.93,4.51-2,6.87"/>
      <path class="cls-3" d="M1292.41,1159.68c-4.92-.64-10.25-.06-14.26,3.09-3.68,2.88-5.79,7.95-4.28,12.52v-1.33c-.28.9-.57,1.8-.85,2.7l2.41-1.84c-4.38-.04-8.24,2.85-10.08,6.72-1.55,3.25-1.62,6.77-.78,10.22.78,3.21,2.47,6.17,5.15,8.14,1.43,1.05,3.14,1.68,4.89,1.93.56.08,1.11.14,1.67.16-.11,0,.59.03.6.02-.06.07-.4-.06-.46-.11-.19-.14-.22-.25-.37-.39.24.23.05.11,0-.08.08.35.19.7.26,1.06.01.08.07.48,0,.05.03.21.05.41.08.62.07.51.13,1.03.23,1.53.18.88.5,1.76,1,2.51.82,1.22,2.08,2.23,3.63,1.91.5-.1.98-.27,1.47-.41l-3.08-1.75c.96,5.2,5.05,9.33,10,10.92,2.74.87,5.68.93,8.48.4,1.25-.24,2.5-.63,3.6-1.27.98-.57,1.76-1.36,2.64-2.06l-1.77.73.18-.02-1.26-.34c1.84.8,3.72,1.42,5.73,1.6,2.67.23,4.98-.94,6.91-2.7s3.3-3.98,4.55-6.18c1.52-2.64,2.6-5.39,2.91-8.44l-3.76,2.16c.63.44,1.26.87,1.88,1.32-.58-.42.27.24.54.4.35.2.74.38,1.13.48.91.25,1.87.26,2.79.06,3.87-.81,5.51-4.56,5.6-8.17.08-3.37-.23-7.45-2.77-9.95-2.79-2.75-6.89-2.4-10.43-1.87l2.82,3.67c2.13-2.77,4.39-5.29,4.09-9.08-.46-5.85-6.48-9.93-12.09-7.87l2.43,4.18c1.47-1.2,1.3-3.8,1.32-5.59.02-2.12-.26-4.23-1.13-6.17-1.68-3.76-5.39-5.61-9.31-6.07s-8.19.25-11.45,2.29c-3.5,2.2-5.86,6.52-4.42,10.65.45,1.27,1.71,2.12,3.08,1.75,1.24-.34,2.19-1.8,1.75-3.08-.82-2.34.8-4.33,2.81-5.39,2.21-1.17,5.05-1.47,7.51-1.28,2.13.16,4.35,1.01,5.39,2.99,1.22,2.34.78,5.35.53,7.86l.73-1.77-.34.28c-1.91,1.57.14,5.02,2.43,4.18,3.09-1.13,6.4,1.13,5.7,4.58-.38,1.86-2.23,3.57-3.35,5.03-.59.77-.35,2.09.2,2.78.68.85,1.59,1.05,2.63.9,1.66-.25,4.2-.68,5.57.59,1.44,1.33,1.31,4.22,1.31,6,0,.99-.02,2.23-.65,3.07-.15.2-.4.42-.71.55,0,0-.8.14-.46.14.17,0-.36-.16-.18-.03.22.16-.31-.23-.49-.37-.16-.12-.33-.23-.49-.35l-1.44-1.01c-1.71-1.2-3.59.46-3.76,2.16-.23,2.19-1.25,4.23-2.34,6.1-1.03,1.78-2.13,3.57-3.66,4.97-1.28,1.17-2.41,1.47-4.06,1.11-.78-.17-1.54-.42-2.29-.7-.14-.05-.27-.1-.4-.16.33.14.38.16.17.07-.61-.26-1.12-.39-1.77-.28-.99.18-1.48.8-2.21,1.39-.66.55-1.41.89-2.23,1.11-2.03.55-4.22.56-6.25.02-3.68-.99-6.43-3.85-7.12-7.6-.24-1.33-1.86-2.08-3.08-1.75l-1.47.41,1.93.25c.14.1-.07-.09-.04-.06-.07-.08-.14-.22-.17-.31.02.05.12.31.03.03s-.16-.56-.21-.84c-.02-.12-.04-.25-.06-.37-.07-.42.04.34-.01-.08-.18-1.31-.25-2.67-.95-3.84-1.61-2.7-5.01-1.65-7.14-2.82-1.8-.99-2.97-2.8-3.58-4.72-.17-.52-.3-1.04-.42-1.57-.05-.24-.09-.47-.14-.71-.02-.12-.04-.23-.06-.35.07.49,0-.03,0-.13-.09-1.12-.14-2.22.13-3.32.73-2.9,3.07-5.65,6.22-5.62,1.13.01,2.08-.79,2.41-1.84.39-1.23,1.14-2.72.85-4.03-.45-2.07-.29-3.73.93-5.55,2.75-4.1,8.38-4.3,12.79-3.73,1.34.17,2.5-1.27,2.5-2.5,0-1.5-1.15-2.33-2.5-2.5h0Z"/>
    </g>
    <g>
      <path class="cls-2" d="M1282.13,1176.48c-1.99,4.55-1.73,11.65-1.82,15.54.08,1.17.94,2.64,2.01,3.08.89.44,1.69.53,2.78.54,2.4.01,4.65-1.31,5.68-3.47.56-1.19.9-2.48,1.26-3.64.36-1.66.97-4.21,1.22-6.81-3.45-2.46-7.13-4.52-11.13-5.22Z"/>
      <path class="cls-1" d="M1290.39,1201.36c-.62.06-1.05.64-.92,1.25.15.71.46,1.59,1.11,2.41,1.48,1.86,3.71,2.17,4.88,2.19.44,0,.87-.18,1.14-.53,1.88-2.39,4.6-4.26,7.66-5.82.47-.24.25-.95-.27-.89-4.54.46-9.07.93-13.61,1.39Z"/>
      <path class="cls-4" d="M1289.6,1185.81c.27,2.49-2.98,3.69-3.62.94-.45-1.33.57-2.88,1.92-2.99.83.41,1.87.98,1.7,2.04Z"/>
    </g>
    <g>
      <path class="cls-2" d="M1309.26,1177.45c1.99,4.55,1.73,11.65,1.82,15.54-.08,1.17-.94,2.64-2.01,3.08-1.13.56-2.31.68-3.44.31-.51-.17-1.05-.24-1.58-.33-2.73-.49-3.97-4.19-4.7-6.55-.36-1.66-.97-4.21-1.22-6.81,3.45-2.46,7.13-4.52,11.13-5.22Z"/>
      <path class="cls-4" d="M1301.78,1186.78c-.27,2.49,2.98,3.69,3.62.94.45-1.33-.57-2.88-1.92-2.99-.83.41-1.87.98-1.7,2.04Z"/>
    </g>
  </g>
  <g>
    <g>
      <path class="cls-4" d="M1423.87,1096.35c-4.05-.55-8.41-.27-11.86,1.92-3.45,2.19-5.65,6.68-4.27,10.52l-.85,2.7c-4.94-.17-8.94,4.91-8.94,9.85,0,4.45,2.09,12.32,10.14,12.32,3.41,0,1.07,5.38,3.95,7.2l1.47-.41c.58,3.5,2.98,6.59,6.11,8.27,3.13,1.67,6.91,1.97,10.34,1.07,1.43-.38,2.28-.89,3.43-1.83.15-.13.49-.51.68-.62.06-.03.12-.05.18-.02.84.37,4.69,1.96,7.03.97,2.65-1.11,4.44-3.59,5.95-6.03,1.62-2.62,3.1-5.44,3.36-8.5l1.94,1.36c1.49,1.42,4.16.54,5.25-1.2,1.09-1.74,1.05-3.94.93-5.99-.13-2.19-.41-4.58-1.98-6.1-2.02-1.95-5.23-1.65-8-1.23l2.55-3.3c1.68-2.28,1.64-5.67-.09-7.91s-5-3.13-7.63-2.07l.34-.28c.36-3.47.62-7.31-1.49-10.09-2.36-3.11-6.85-3.67-10.72-3.12-2.51.36-5.06,1.13-6.94,2.83-1.88,1.7-2.93,4.51-2,6.87"/>
      <path class="cls-3" d="M1423.87,1093.85c-4.92-.64-10.25-.06-14.26,3.09-3.68,2.88-5.79,7.95-4.28,12.52v-1.33c-.28.9-.57,1.8-.85,2.7l2.41-1.84c-4.38-.04-8.24,2.85-10.08,6.72-1.55,3.25-1.62,6.77-.78,10.22.78,3.21,2.47,6.17,5.15,8.14,1.43,1.05,3.14,1.68,4.89,1.93.56.08,1.11.14,1.67.16-.11,0,.59.03.6.02-.06.07-.4-.06-.46-.11-.19-.14-.22-.25-.37-.39.24.23.05.11,0-.08.08.35.19.7.26,1.06.01.08.07.48,0,.05.03.21.05.41.08.62.07.51.13,1.03.23,1.53.18.88.5,1.76,1,2.51.82,1.22,2.08,2.23,3.63,1.91.5-.1.98-.27,1.47-.41l-3.08-1.75c.96,5.2,5.05,9.33,10,10.92,2.74.87,5.68.93,8.48.4,1.25-.24,2.5-.63,3.6-1.27.98-.57,1.76-1.36,2.64-2.06l-1.77.73.18-.02-1.26-.34c1.84.8,3.72,1.42,5.73,1.6,2.67.23,4.98-.94,6.91-2.7s3.3-3.98,4.55-6.18c1.52-2.64,2.6-5.39,2.91-8.44l-3.76,2.16c.63.44,1.26.87,1.88,1.32-.58-.42.27.24.54.4.35.2.74.38,1.13.48.91.25,1.87.26,2.79.06,3.87-.81,5.51-4.56,5.6-8.17.08-3.37-.23-7.45-2.77-9.95-2.79-2.75-6.89-2.4-10.43-1.87l2.82,3.67c2.13-2.77,4.39-5.29,4.09-9.08-.46-5.85-6.48-9.93-12.09-7.87l2.43,4.18c1.47-1.2,1.3-3.8,1.32-5.59.02-2.12-.26-4.23-1.13-6.17-1.68-3.76-5.39-5.61-9.31-6.07s-8.19.25-11.45,2.29c-3.5,2.2-5.86,6.52-4.42,10.65.45,1.27,1.71,2.12,3.08,1.75,1.24-.34,2.19-1.8,1.75-3.08-.82-2.34.8-4.33,2.81-5.39,2.21-1.17,5.05-1.47,7.51-1.28,2.13.16,4.35,1.01,5.39,2.99,1.22,2.34.78,5.35.53,7.86l.73-1.77-.34.28c-1.91,1.57.14,5.02,2.43,4.18,3.09-1.13,6.4,1.13,5.7,4.58-.38,1.86-2.23,3.57-3.35,5.03-.59.77-.35,2.09.2,2.78.68.85,1.59,1.05,2.63.9,1.66-.25,4.2-.68,5.57.59,1.44,1.33,1.31,4.22,1.31,6,0,.99-.02,2.23-.65,3.07-.15.2-.4.42-.71.55,0,0-.8.14-.46.14.17,0-.36-.16-.18-.03.22.16-.31-.23-.49-.37-.16-.12-.33-.23-.49-.35l-1.44-1.01c-1.71-1.2-3.59.46-3.76,2.16-.23,2.19-1.25,4.23-2.34,6.1-1.03,1.78-2.13,3.57-3.66,4.97-1.28,1.17-2.41,1.47-4.06,1.11-.78-.17-1.54-.42-2.29-.7-.14-.05-.27-.1-.4-.16.33.14.38.16.17.07-.61-.26-1.12-.39-1.77-.28-.99.18-1.48.8-2.21,1.39-.66.55-1.41.89-2.23,1.11-2.03.55-4.22.56-6.25.02-3.68-.99-6.43-3.85-7.12-7.6-.24-1.33-1.86-2.08-3.08-1.75l-1.47.41,1.93.25c.14.1-.07-.09-.04-.06-.07-.08-.14-.22-.17-.31.02.05.12.31.03.03s-.16-.56-.21-.84c-.02-.12-.04-.25-.06-.37-.07-.42.04.34-.01-.08-.18-1.31-.25-2.67-.95-3.84-1.61-2.7-5.01-1.65-7.14-2.82-1.8-.99-2.97-2.8-3.58-4.72-.17-.52-.3-1.04-.42-1.57-.05-.24-.09-.47-.14-.71-.02-.12-.04-.23-.06-.35.07.49,0-.03,0-.13-.09-1.12-.14-2.22.13-3.32.73-2.9,3.07-5.65,6.22-5.62,1.13.01,2.08-.79,2.41-1.84.39-1.23,1.14-2.72.85-4.03-.45-2.07-.29-3.73.93-5.55,2.75-4.1,8.38-4.3,12.79-3.73,1.34.17,2.5-1.27,2.5-2.5,0-1.5-1.15-2.33-2.5-2.5h0Z"/>
    </g>
    <g>
      <path class="cls-2" d="M1413.59,1110.65c-1.99,4.55-1.73,11.65-1.82,15.54.08,1.17.94,2.64,2.01,3.08.89.44,1.69.53,2.78.54,2.4.01,4.65-1.31,5.68-3.47.56-1.19.9-2.48,1.26-3.64.36-1.66.97-4.21,1.22-6.81-3.45-2.46-7.13-4.52-11.13-5.22Z"/>
      <path class="cls-1" d="M1421.85,1135.53c-.62.06-1.05.64-.92,1.25.15.71.46,1.59,1.11,2.41,1.48,1.86,3.71,2.17,4.88,2.19.44,0,.87-.18,1.14-.53,1.88-2.39,4.6-4.26,7.66-5.82.47-.24.25-.95-.27-.89-4.54.46-9.07.93-13.61,1.39Z"/>
      <path class="cls-4" d="M1421.06,1119.98c.27,2.49-2.98,3.69-3.62.94-.45-1.33.57-2.88,1.92-2.99.83.41,1.87.98,1.7,2.04Z"/>
    </g>
    <g>
      <path class="cls-2" d="M1440.72,1111.62c1.99,4.55,1.73,11.65,1.82,15.54-.08,1.17-.94,2.64-2.01,3.08-1.13.56-2.31.68-3.44.31-.51-.17-1.05-.24-1.58-.33-2.73-.49-3.97-4.19-4.7-6.55-.36-1.66-.97-4.21-1.22-6.81,3.45-2.46,7.13-4.52,11.13-5.22Z"/>
      <path class="cls-4" d="M1433.25,1120.95c-.27,2.49,2.98,3.69,3.62.94.45-1.33-.57-2.88-1.92-2.99-.83.41-1.87.98-1.7,2.04Z"/>
    </g>
  </g>
  <g>
    <g>
      <path class="cls-4" d="M1446.83,1300.85c-4.05-.55-8.41-.27-11.86,1.92-3.45,2.19-5.65,6.68-4.27,10.52l-.85,2.7c-4.94-.17-8.94,4.91-8.94,9.85,0,4.45,2.09,12.32,10.14,12.32,3.41,0,1.07,5.38,3.95,7.2l1.47-.41c.58,3.5,2.98,6.59,6.11,8.27,3.13,1.67,6.91,1.97,10.34,1.07,1.43-.38,2.28-.89,3.43-1.83.15-.13.49-.51.68-.62.06-.03.12-.05.18-.02.84.37,4.69,1.96,7.03.97,2.65-1.11,4.44-3.59,5.95-6.03,1.62-2.62,3.1-5.44,3.36-8.5l1.94,1.36c1.49,1.42,4.16.54,5.25-1.2s1.05-3.94.93-5.99c-.13-2.19-.41-4.58-1.98-6.1-2.02-1.95-5.23-1.65-8-1.23l2.55-3.3c1.68-2.28,1.64-5.67-.09-7.91s-5-3.13-7.63-2.07l.34-.28c.36-3.47.62-7.31-1.49-10.09-2.36-3.11-6.85-3.67-10.72-3.12-2.51.36-5.06,1.13-6.94,2.83s-2.93,4.51-2,6.87"/>
      <path class="cls-3" d="M1446.83,1298.35c-4.92-.64-10.25-.06-14.26,3.09-3.68,2.88-5.79,7.95-4.28,12.52v-1.33c-.28.9-.57,1.8-.85,2.7l2.41-1.84c-4.38-.04-8.24,2.85-10.08,6.72-1.55,3.25-1.62,6.77-.78,10.22.78,3.21,2.47,6.17,5.15,8.14,1.43,1.05,3.14,1.68,4.89,1.93.56.08,1.11.14,1.67.16-.11,0,.59.03.6.02-.06.07-.4-.06-.46-.11-.19-.14-.22-.25-.37-.39.24.23.05.11,0-.08.08.35.19.7.26,1.06.01.08.07.48,0,.05.03.21.05.41.08.62.07.51.13,1.03.23,1.53.18.88.5,1.76,1,2.51.82,1.22,2.08,2.23,3.63,1.91.5-.1.98-.27,1.47-.41l-3.08-1.75c.96,5.2,5.05,9.33,10,10.92,2.74.87,5.68.93,8.48.4,1.25-.24,2.5-.63,3.6-1.27.98-.57,1.76-1.36,2.64-2.06l-1.77.73.18-.02-1.26-.34c1.84.8,3.72,1.42,5.73,1.6,2.67.23,4.98-.94,6.91-2.7s3.3-3.98,4.55-6.18c1.52-2.64,2.6-5.39,2.91-8.44l-3.76,2.16c.63.44,1.26.87,1.88,1.32-.58-.42.27.24.54.4.35.2.74.38,1.13.48.91.25,1.87.26,2.79.06,3.87-.81,5.51-4.56,5.6-8.17.08-3.37-.23-7.45-2.77-9.95-2.79-2.75-6.89-2.4-10.43-1.87l2.82,3.67c2.13-2.77,4.39-5.29,4.09-9.08-.46-5.85-6.48-9.93-12.09-7.87l2.43,4.18c1.47-1.2,1.3-3.8,1.32-5.59.02-2.12-.26-4.23-1.13-6.17-1.68-3.76-5.39-5.61-9.31-6.07s-8.19.25-11.45,2.29c-3.5,2.2-5.86,6.52-4.42,10.65.45,1.27,1.71,2.12,3.08,1.75,1.24-.34,2.19-1.8,1.75-3.08-.82-2.34.8-4.33,2.81-5.39,2.21-1.17,5.05-1.47,7.51-1.28,2.13.16,4.35,1.01,5.39,2.99,1.22,2.34.78,5.35.53,7.86l.73-1.77-.34.28c-1.91,1.57.14,5.02,2.43,4.18,3.09-1.13,6.4,1.13,5.7,4.58-.38,1.86-2.23,3.57-3.35,5.03-.59.77-.35,2.09.2,2.78.68.85,1.59,1.05,2.63.9,1.66-.25,4.2-.68,5.57.59,1.44,1.33,1.31,4.22,1.31,6,0,.99-.02,2.23-.65,3.07-.15.2-.4.42-.71.55,0,0-.8.14-.46.14.17,0-.36-.16-.18-.03.22.16-.31-.23-.49-.37-.16-.12-.33-.23-.49-.35l-1.44-1.01c-1.71-1.2-3.59.46-3.76,2.16-.23,2.19-1.25,4.23-2.34,6.1-1.03,1.78-2.13,3.57-3.66,4.97-1.28,1.17-2.41,1.47-4.06,1.11-.78-.17-1.54-.42-2.29-.7-.14-.05-.27-.1-.4-.16.33.14.38.16.17.07-.61-.26-1.12-.39-1.77-.28-.99.18-1.48.8-2.21,1.39-.66.55-1.41.89-2.23,1.11-2.03.55-4.22.56-6.25.02-3.68-.99-6.43-3.85-7.12-7.6-.24-1.33-1.86-2.08-3.08-1.75l-1.47.41,1.93.25c.14.1-.07-.09-.04-.06-.07-.08-.14-.22-.17-.31.02.05.12.31.03.03s-.16-.56-.21-.84c-.02-.12-.04-.25-.06-.37-.07-.42.04.34-.01-.08-.18-1.31-.25-2.67-.95-3.84-1.61-2.7-5.01-1.65-7.14-2.82-1.8-.99-2.97-2.8-3.58-4.72-.17-.52-.3-1.04-.42-1.57-.05-.24-.09-.47-.14-.71-.02-.12-.04-.23-.06-.35.07.49,0-.03,0-.13-.09-1.12-.14-2.22.13-3.32.73-2.9,3.07-5.65,6.22-5.62,1.13.01,2.08-.79,2.41-1.84.39-1.23,1.14-2.72.85-4.03-.45-2.07-.29-3.73.93-5.55,2.75-4.1,8.38-4.3,12.79-3.73,1.34.17,2.5-1.27,2.5-2.5,0-1.5-1.15-2.33-2.5-2.5h0Z"/>
    </g>
    <g>
      <path class="cls-2" d="M1436.55,1315.14c-1.99,4.55-1.73,11.65-1.82,15.54.08,1.17.94,2.64,2.01,3.08.89.44,1.69.53,2.78.54,2.4.01,4.65-1.31,5.68-3.47.56-1.19.9-2.48,1.26-3.64.36-1.66.97-4.21,1.22-6.81-3.45-2.46-7.13-4.52-11.13-5.22Z"/>
      <path class="cls-1" d="M1444.81,1340.02c-.62.06-1.05.64-.92,1.25.15.71.46,1.59,1.11,2.41,1.48,1.86,3.71,2.17,4.88,2.19.44,0,.87-.18,1.14-.53,1.88-2.39,4.6-4.26,7.66-5.82.47-.24.25-.95-.27-.89-4.54.46-9.07.93-13.61,1.39Z"/>
      <path class="cls-4" d="M1444.02,1324.48c.27,2.49-2.98,3.69-3.62.94-.45-1.33.57-2.88,1.92-2.99.83.41,1.87.98,1.7,2.04Z"/>
    </g>
    <g>
      <path class="cls-2" d="M1463.68,1316.11c1.99,4.55,1.73,11.65,1.82,15.54-.08,1.17-.94,2.64-2.01,3.08-1.13.56-2.31.68-3.44.31-.51-.17-1.05-.24-1.58-.33-2.73-.49-3.97-4.19-4.7-6.55-.36-1.66-.97-4.21-1.22-6.81,3.45-2.46,7.13-4.52,11.13-5.22Z"/>
      <path class="cls-4" d="M1456.2,1325.45c-.27,2.49,2.98,3.69,3.62.94.45-1.33-.57-2.88-1.92-2.99-.83.41-1.87.98-1.7,2.04Z"/>
    </g>
  </g>
  <g>
    <g>
      <path class="cls-4" d="M1027.11,1112.37c-10.63-1.46-22.05-.72-31.11,5.04-9.05,5.75-14.83,17.5-11.19,27.6l-2.24,7.07c-12.95-.44-23.44,12.88-23.44,25.84,0,11.67,5.48,32.3,26.58,32.3,8.93,0,2.8,14.12,10.36,18.87l3.86-1.06c1.52,9.18,7.81,17.29,16.01,21.67,8.21,4.39,18.12,5.16,27.12,2.8,3.76-.99,5.98-2.33,8.98-4.8.41-.33,1.29-1.33,1.77-1.63.15-.09.31-.12.47-.05,2.2.97,12.29,5.14,18.45,2.55,6.94-2.92,11.64-9.41,15.59-15.82,4.24-6.86,8.14-14.25,8.81-22.29l5.09,3.58c3.9,3.73,10.9,1.42,13.77-3.15s2.77-10.33,2.44-15.71c-.34-5.74-1.07-12.01-5.2-16-5.29-5.1-13.72-4.34-20.98-3.23l6.68-8.66c4.4-5.97,4.3-14.86-.24-20.73-4.54-5.87-13.12-8.2-20.01-5.44l.89-.73c.95-9.09,1.63-19.17-3.89-26.45-6.2-8.16-17.97-9.63-28.11-8.18-6.58.94-13.27,2.96-18.21,7.42-4.93,4.46-7.68,11.82-5.25,18.01"/>
      <path class="cls-3" d="M1027.11,1109.87c-9.54-1.28-19.48-.8-28.35,3.21-7.84,3.54-14.11,10.37-16.54,18.67-1.33,4.52-1.37,9.45.19,13.92v-1.33c-.75,2.36-1.49,4.71-2.24,7.07l2.41-1.84c-10.29-.25-19.18,7.12-23.22,16.21-3.38,7.61-3.27,15.91-1.18,23.85,1.93,7.34,5.83,14.3,12.19,18.67,3.64,2.5,7.91,3.81,12.27,4.26,1.11.11,2.23.13,3.34.16-.03,0,.77.08.39.02s.34.09.33.08c.11.03.72.28.17.02.17.08.34.18.5.28.51.29-.23-.24,0,0,.1.11.22.22.32.33.41.42-.18-.3,0,.01.08.14.16.27.24.41,0,.01.28.59.13.23s.09.26.1.27c.13.41.25.82.35,1.24.47,2.05.49,3.25.82,5.53.31,2.12.79,4.2,1.79,6.11s3.24,4.74,5.63,4.23c1.29-.27,2.57-.71,3.84-1.06l-3.08-1.75c1.57,9.1,7.46,17.14,15.2,22.03,8.64,5.45,19.48,6.73,29.36,4.59,2.6-.57,5.17-1.4,7.48-2.75,1.06-.62,2.05-1.35,3.02-2.11.51-.4,1.03-.79,1.5-1.23.2-.18.39-.38.58-.57.27-.27.97-.6.04-.25h-1.33c-.51-.07-.06-.07.2.02.39.14.78.33,1.17.49.68.28,1.37.54,2.07.79,1.75.62,3.54,1.15,5.36,1.53,4.4.93,8.76,1.03,12.87-.98,4.37-2.14,7.88-5.67,10.82-9.47,3.1-4.01,5.79-8.41,8.16-12.89,2.89-5.47,5.05-11.24,5.61-17.43l-3.76,2.16c1.24.87,2.47,1.74,3.71,2.61.44.31.91.61,1.34.94.22.17-.74-.6,0,.05.3.26.66.53,1,.75.68.44,1.46.77,2.22,1.01,5.51,1.72,11.76-1.69,14.42-6.53,3.28-5.97,2.79-13.5,2.06-20.05s-2.67-12.67-8.4-16.12c-6.16-3.7-13.89-2.76-20.64-1.74l2.82,3.67,4.24-5.5c1.72-2.24,3.42-4.31,4.51-6.96,3.85-9.32,0-20.71-9.21-25.14-4.94-2.38-10.78-2.9-15.94-.9l2.43,4.18c.28-.23.61-.45.86-.71.87-.87.81-2.23.92-3.38.18-1.82.33-3.63.41-5.46.17-3.75.05-7.54-.71-11.24-1.43-6.95-5.69-12.92-12.1-16.08s-13.21-3.7-19.94-3.05c-7.46.71-15.08,2.67-21.06,7.39s-10.04,13.75-7.13,21.49c.47,1.26,1.69,2.13,3.08,1.75,1.21-.33,2.22-1.8,1.75-3.08-2.01-5.34.11-11.2,4.06-15.07,4.56-4.46,11.09-6.32,17.24-7.23,10.29-1.52,23.64.2,28.08,11.12,2.68,6.59,1.87,14.15,1.16,21.04l.73-1.77-.89.73c-1.89,1.55.14,5.07,2.43,4.18,7.25-2.81,16.34.37,19.26,7.87,1.45,3.74,1.45,8.07-.15,11.76-.94,2.17-2.54,3.98-3.97,5.84l-4.38,5.68c-.59.77-.35,2.09.2,2.78.68.85,1.59,1.05,2.63.9,4.89-.74,10.44-1.49,15.17.41s6.69,6.75,7.41,11.57c.4,2.69.53,5.46.59,8.18s-.07,5.66-.96,8.37c-.71,2.18-1.98,4.07-3.96,5.27-1.68,1.02-3.7,1.52-5.4,1.07-1.34-.36-2.59-1.57-3.85-2.45-1.18-.83-2.35-1.65-3.53-2.48-1.69-1.19-3.61.45-3.76,2.16-.44,4.81-2.15,9.43-4.32,13.72s-4.57,8.25-7.28,12.07c-2.4,3.37-5.25,6.6-8.82,8.75-3.29,1.98-6.47,2.22-10.21,1.5-1.72-.33-3.41-.81-5.08-1.36-.66-.22-1.31-.46-1.96-.7-.27-.1-.53-.21-.8-.32-.12-.05-.23-.1-.35-.14-.32-.13.48.21.08.03-1.02-.44-1.97-.73-3.04-.22-.96.45-1.63,1.29-2.4,1.99-1.46,1.32-3.2,2.47-4.99,3.28-3.98,1.8-8.77,2.31-13.09,2.25s-9.14-.95-13.28-2.83c-8.62-3.92-15.13-11.71-16.76-21.11-.23-1.33-1.87-2.08-3.08-1.75-1.29.35-2.58.71-3.86,1.06l1.93.25c-.49-.32-.29-.16-.7-.55-.24-.23-.46-.46-.66-.72.22.29-.29-.49-.35-.6-.27-.47-.37-.7-.42-.83-.56-1.45-.83-2.99-1.06-4.53-.06-.43.04.33-.01-.09-.03-.21-.05-.42-.08-.63-.04-.33-.08-.66-.12-.99-.12-.94-.24-1.88-.4-2.8-.25-1.4-.65-2.85-1.4-4.07-.86-1.42-2.13-2.44-3.7-2.99-1.83-.64-3.9-.37-5.8-.56-3.46-.36-6.64-1.5-9.52-3.43-5-3.35-8.16-9.05-9.85-14.86-.42-1.46-.77-2.95-1.03-4.45-.06-.35-.12-.7-.18-1.06-.02-.15-.05-.31-.07-.47-.11-.74.04.31-.02-.14-.09-.71-.16-1.42-.22-2.13-.27-3.53-.03-6.97,1.04-10.37,2.72-8.57,10.31-16.33,19.77-16.1,1.13.03,2.08-.8,2.41-1.84.72-2.28,1.58-4.56,2.17-6.87.24-.91,0-1.66-.27-2.54-.34-1.13-.56-2.29-.64-3.47-.14-2.24.12-4.44.73-6.6,1.27-4.45,3.92-8.4,7.35-11.47,3.85-3.44,8.81-5.48,13.8-6.57,6.21-1.36,12.69-1.18,18.97-.34,1.34.18,2.5-1.28,2.5-2.5,0-1.5-1.16-2.32-2.5-2.5h0Z"/>
    </g>
    <g>
      <path class="cls-2" d="M1000.15,1149.86c-5.21,11.93-4.54,30.56-4.77,40.74.2,3.06,2.46,6.93,5.27,8.07,2.34,1.16,4.43,1.39,7.28,1.41,6.29.04,12.19-3.43,14.89-9.11,1.48-3.11,2.36-6.51,3.31-9.56.94-4.34,2.54-11.04,3.21-17.85-9.05-6.46-18.7-11.85-29.19-13.7Z"/>
      <path class="cls-1" d="M1021.81,1215.09c-1.62.17-2.74,1.69-2.42,3.28.38,1.85,1.2,4.16,2.92,6.33,3.89,4.89,9.72,5.7,12.79,5.75,1.16.02,2.28-.47,2.99-1.38,4.93-6.28,12.05-11.16,20.1-15.27,1.22-.63.67-2.48-.7-2.34-11.9,1.21-23.79,2.43-35.69,3.64Z"/>
      <path class="cls-4" d="M1019.74,1174.33c.7,6.52-7.82,9.67-9.49,2.47-1.17-3.5,1.5-7.55,5.04-7.83,2.17,1.06,4.92,2.57,4.45,5.36Z"/>
    </g>
    <g>
      <path class="cls-2" d="M1071.29,1152.4c5.21,11.93,4.54,30.56,4.77,40.74-.2,3.06-2.46,6.93-5.27,8.07-2.97,1.48-6.05,1.77-9.02.8-1.34-.44-2.75-.63-4.13-.88-7.17-1.29-10.4-11-12.33-17.19-.94-4.34-2.54-11.04-3.21-17.85,9.05-6.46,18.7-11.85,29.19-13.7Z"/>
      <path class="cls-4" d="M1051.7,1176.87c-.7,6.52,7.82,9.67,9.49,2.47,1.17-3.5-1.5-7.55-5.04-7.83-2.17,1.06-4.92,2.57-4.45,5.36Z"/>
    </g>
  </g>
  <g>
    <g>
      <g>
        <path class="cls-4" d="M1278.77,1008.3c-6.41-.88-13.31-.43-18.77,3.04-5.46,3.47-8.95,10.56-6.75,16.65l-1.35,4.27c-7.82-.27-14.14,7.77-14.14,15.59,0,7.04,3.31,19.49,16.04,19.49,5.39,0,1.69,8.52,6.25,11.39l2.33-.64c.92,5.54,4.71,10.43,9.66,13.08,4.95,2.65,10.94,3.12,16.37,1.69,2.27-.6,3.61-1.41,5.42-2.9.24-.2.78-.8,1.07-.98.09-.05.19-.07.28-.03,1.32.59,7.42,3.1,11.13,1.54,4.19-1.76,7.02-5.68,9.41-9.54,2.56-4.14,4.91-8.6,5.32-13.45l3.07,2.16c2.35,2.25,6.58.85,8.31-1.9,1.73-2.75,1.67-6.23,1.48-9.48-.21-3.46-.64-7.25-3.14-9.66-3.19-3.08-8.28-2.62-12.66-1.95l4.03-5.22c2.66-3.6,2.59-8.97-.15-12.51-2.74-3.54-7.92-4.95-12.07-3.28l.54-.44c.57-5.49.99-11.57-2.35-15.96-3.74-4.92-10.84-5.81-16.96-4.94-3.97.57-8.01,1.79-10.99,4.48-2.98,2.69-4.63,7.13-3.17,10.87"/>
        <path class="cls-3" d="M1278.77,1005.8c-7.45-.99-15.63-.2-21.72,4.6-5.31,4.2-8.48,11.63-6.22,18.26v-1.33c-.45,1.42-.9,2.84-1.35,4.27l2.41-1.84c-6.42-.12-12.05,4.28-14.71,9.93-2.27,4.82-2.32,10.04-1.06,15.14,1.18,4.74,3.65,9.17,7.67,12.05,2.24,1.61,4.9,2.47,7.61,2.81.73.09,1.47.15,2.2.15.14,0,.29,0,.44,0-.07,0-.32.01-.08-.01.11-.01.21.08.31.08-.2,0-.28-.21-.06,0-.33-.29-.07-.1.06.08-.26-.36-.07-.1.03.12.17.37-.05-.35.08.25.06.25.13.49.19.74.06.27.1.53.14.8.05.29,0-.02,0-.06.02.16.04.33.06.49.1.77.19,1.53.31,2.3.21,1.27.57,2.54,1.2,3.67.86,1.52,2.51,3.25,4.42,2.85.78-.16,1.56-.43,2.33-.64l-3.08-1.75c1.35,7.61,7.28,13.72,14.49,16.15,3.9,1.31,8.09,1.5,12.14.87,1.9-.29,3.77-.79,5.5-1.64,1.52-.75,2.95-2.15,4.06-3l-1.26.34.28-.03-1.26-.34c2.64,1.16,5.38,2.04,8.26,2.32,3.89.38,7.24-1.32,10.05-3.91s5.07-6.19,7.01-9.6c2.2-3.88,3.87-7.95,4.29-12.42l-3.76,2.16,2.3,1.62c.16.11,1.07.81.5.36.78.62,1.58,1.13,2.56,1.39,3.71,1,7.81-1.08,9.65-4.35,2.13-3.76,1.89-8.49,1.43-12.65s-1.7-8.1-5.33-10.46c-3.95-2.58-9.05-1.96-13.46-1.3l2.82,3.67c1.17-1.52,2.34-3.03,3.51-4.55,1.93-2.5,2.99-5.57,2.79-8.76-.25-4.17-2.34-7.95-5.92-10.18-3.34-2.08-7.71-2.6-11.39-1.2l2.43,4.18c.82-.67,1.17-1.31,1.29-2.4.13-1.19.23-2.39.3-3.59.13-2.41.06-4.83-.38-7.21-.84-4.48-3.56-8.43-7.65-10.51-3.87-1.97-8.38-2.47-12.67-2.06-4.84.46-9.74,1.73-13.57,4.86s-6.22,8.87-4.42,13.82c.46,1.27,1.7,2.12,3.08,1.75,1.22-.34,2.21-1.8,1.75-3.08-1.08-2.95.06-6.05,2.26-8.18,2.57-2.49,6.3-3.51,9.75-4.03,5.77-.86,13.46-.02,15.95,6.17,1.54,3.83,1.01,8.27.6,12.26l.73-1.77-.54.44c-1.9,1.56.14,5.05,2.43,4.18,5.66-2.15,11.77,2.17,10.95,8.37-.27,2.01-1.36,3.5-2.55,5.05-1.01,1.31-2.02,2.62-3.03,3.93-.59.77-.35,2.09.2,2.78.68.85,1.59,1.05,2.63.9,3.21-.48,7.62-1.15,10.23,1.3s2.5,7.27,2.5,10.56c0,3-.84,7.24-4.36,7.33-.87.02-1.52-.62-2.43-1.26l-2.39-1.68c-1.7-1.2-3.6.46-3.76,2.16-.53,5.5-3.78,10.74-6.92,15.14-1.4,1.96-3.08,3.8-5.18,5.01-1.8,1.03-3.57.99-5.59.54-1.01-.22-2-.51-2.97-.85-.35-.12-.69-.25-1.03-.38-.15-.06-.31-.12-.46-.19.63.26.19.08.06.02-1.71-.73-2.84-.01-4.09,1.13-.82.76-1.76,1.42-2.77,1.9-4.5,2.11-10.68,1.73-15.14-.25-5.01-2.23-8.68-6.73-9.64-12.14-.24-1.33-1.87-2.08-3.08-1.75l-2.33.64,1.93.25c-.24-.16-.38-.3-.51-.49-.09-.13-.17-.28-.25-.42-.37-.65.12.41-.14-.3-.14-.39-.25-.79-.34-1.2-.05-.25-.1-.5-.14-.75-.01-.07-.12-.77-.06-.34-.27-1.92-.34-3.94-1.33-5.66-1.29-2.23-3.46-2.47-5.79-2.6-2.05-.12-3.97-.7-5.63-1.72-2.94-1.81-4.82-5.03-5.83-8.37-.26-.87-.48-1.76-.65-2.66-.07-.39-.14-.79-.2-1.18.08.56-.02-.2-.03-.26-.02-.22-.05-.45-.07-.67-.17-2-.09-3.95.48-5.89,1.45-4.92,5.69-9.41,11.07-9.31,1.13.02,2.08-.8,2.41-1.84l.86-2.72c.41-1.31.68-2.14.27-3.56-.94-3.26.1-6.65,1.95-9.39,4.64-6.83,13.94-7.44,21.38-6.46,1.34.18,2.5-1.28,2.5-2.5,0-1.5-1.16-2.32-2.5-2.5h0Z"/>
      </g>
      <g>
        <path class="cls-2" d="M1262.5,1030.92c-3.14,7.2-2.74,18.44-2.88,24.58.12,1.85,1.49,4.18,3.18,4.87,1.41.7,2.67.84,4.39.85,3.79.02,7.35-2.07,8.98-5.5.89-1.88,1.42-3.93,2-5.77.57-2.62,1.53-6.66,1.94-10.77-5.46-3.9-11.28-7.15-17.61-8.26Z"/>
        <path class="cls-1" d="M1275.57,1070.28c-.98.1-1.66,1.02-1.46,1.98.23,1.12.72,2.51,1.76,3.82,2.35,2.95,5.87,3.44,7.72,3.47.7.01,1.37-.28,1.81-.83,2.98-3.79,7.27-6.74,12.13-9.22.74-.38.4-1.5-.42-1.41-7.18.73-14.36,1.47-21.53,2.2Z"/>
        <path class="cls-4" d="M1274.32,1045.69c.42,3.93-4.72,5.83-5.73,1.49-.7-2.11.91-4.56,3.04-4.73,1.31.64,2.97,1.55,2.69,3.23Z"/>
      </g>
      <g>
        <path class="cls-2" d="M1305.43,1032.45c3.14,7.2,2.74,18.44,2.88,24.58-.12,1.85-1.49,4.18-3.18,4.87-1.79.89-3.65,1.07-5.44.48-.81-.27-1.66-.38-2.49-.53-4.33-.78-6.28-6.64-7.44-10.37-.57-2.62-1.53-6.66-1.94-10.77,5.46-3.9,11.28-7.15,17.61-8.26Z"/>
        <path class="cls-4" d="M1293.6,1047.22c-.42,3.93,4.72,5.83,5.73,1.49.7-2.11-.91-4.56-3.04-4.73-1.31.64-2.97,1.55-2.69,3.23Z"/>
      </g>
    </g>
    <path class="cls-3" d="M1289.3,1032.02c2.15-2.13,4.09-4.45,5.86-6.91.36-.5.41-1.36.25-1.93s-.61-1.21-1.15-1.49c-.58-.31-1.28-.46-1.93-.25s-1.1.59-1.49,1.15c-.36.51-.74,1.01-1.12,1.5l.39-.51c-1.34,1.73-2.79,3.37-4.35,4.9-.93.92-.99,2.63,0,3.54s2.54.98,3.54,0h0Z"/>
    <path class="cls-3" d="M1280.18,1026.97c-2.15-1.1-4.2-2.38-6.14-3.83-.49-.36-1.37-.41-1.93-.25s-1.21.61-1.49,1.15c-.31.58-.46,1.28-.25,1.93l.25.6c.22.38.52.67.9.9,1.94,1.44,3.99,2.73,6.14,3.83.6.31,1.27.43,1.93.25.58-.16,1.21-.61,1.49-1.15.6-1.14.35-2.78-.9-3.42h0Z"/>
  </g>
  <g>
    <g>
      <g>
        <path class="cls-4" d="M567.4,1144.77c-6.41-.88-13.31-.43-18.77,3.04-5.46,3.47-8.95,10.56-6.75,16.65l-1.35,4.27c-7.82-.27-14.14,7.77-14.14,15.59,0,7.04,3.31,19.49,16.04,19.49,5.39,0,1.69,8.52,6.25,11.39l2.33-.64c.92,5.54,4.71,10.43,9.66,13.08,4.95,2.65,10.94,3.12,16.37,1.69,2.27-.6,3.61-1.41,5.42-2.9.24-.2.78-.8,1.07-.98.09-.05.19-.07.28-.03,1.32.59,7.42,3.1,11.13,1.54,4.19-1.76,7.02-5.68,9.41-9.54,2.56-4.14,4.91-8.6,5.32-13.45l3.07,2.16c2.35,2.25,6.58.85,8.31-1.9,1.73-2.75,1.67-6.23,1.48-9.48-.21-3.46-.64-7.25-3.14-9.66-3.19-3.08-8.28-2.62-12.66-1.95l4.03-5.22c2.66-3.6,2.59-8.97-.15-12.51-2.74-3.54-7.92-4.95-12.07-3.28l.54-.44c.57-5.49.99-11.57-2.35-15.96-3.74-4.92-10.84-5.81-16.96-4.94-3.97.57-8.01,1.79-10.99,4.48-2.98,2.69-4.63,7.13-3.17,10.87"/>
        <path class="cls-3" d="M567.4,1142.27c-7.45-.99-15.63-.2-21.72,4.6-5.31,4.2-8.48,11.63-6.22,18.26v-1.33c-.45,1.42-.9,2.84-1.35,4.27l2.41-1.84c-6.42-.12-12.05,4.28-14.71,9.93-2.27,4.82-2.32,10.04-1.06,15.14,1.18,4.74,3.65,9.17,7.67,12.05,2.24,1.61,4.9,2.47,7.61,2.81.73.09,1.47.15,2.2.15.14,0,.29,0,.44,0-.07,0-.32.01-.08-.01.11-.01.21.08.31.08-.2,0-.28-.21-.06,0-.33-.29-.07-.1.06.08-.26-.36-.07-.1.03.12.17.37-.05-.35.08.25.06.25.13.49.19.74.06.27.1.53.14.8.05.29,0-.02,0-.06.02.16.04.33.06.49.1.77.19,1.53.31,2.3.21,1.27.57,2.54,1.2,3.67.86,1.52,2.51,3.25,4.42,2.85.78-.16,1.56-.43,2.33-.64l-3.08-1.75c1.35,7.61,7.28,13.72,14.49,16.15,3.9,1.31,8.09,1.5,12.14.87,1.9-.29,3.77-.79,5.5-1.64,1.52-.75,2.95-2.15,4.06-3l-1.26.34.28-.03-1.26-.34c2.64,1.16,5.38,2.04,8.26,2.32,3.89.38,7.24-1.32,10.05-3.91s5.07-6.19,7.01-9.6c2.2-3.88,3.87-7.95,4.29-12.42l-3.76,2.16,2.3,1.62c.16.11,1.07.81.5.36.78.62,1.58,1.13,2.56,1.39,3.71,1,7.81-1.08,9.65-4.35,2.13-3.76,1.89-8.49,1.43-12.65s-1.7-8.1-5.33-10.46c-3.95-2.58-9.05-1.96-13.46-1.3l2.82,3.67c1.17-1.52,2.34-3.03,3.51-4.55,1.93-2.5,2.99-5.57,2.79-8.76-.25-4.17-2.34-7.95-5.92-10.18-3.34-2.08-7.71-2.6-11.39-1.2l2.43,4.18c.82-.67,1.17-1.31,1.29-2.4.13-1.19.23-2.39.3-3.59.13-2.41.06-4.83-.38-7.21-.84-4.48-3.56-8.43-7.65-10.51-3.87-1.97-8.38-2.47-12.67-2.06-4.84.46-9.74,1.73-13.57,4.86s-6.22,8.87-4.42,13.82c.46,1.27,1.7,2.12,3.08,1.75,1.22-.34,2.21-1.8,1.75-3.08-1.08-2.95.06-6.05,2.26-8.18,2.57-2.49,6.3-3.51,9.75-4.03,5.77-.86,13.46-.02,15.95,6.17,1.54,3.83,1.01,8.27.6,12.26l.73-1.77-.54.44c-1.9,1.56.14,5.05,2.43,4.18,5.66-2.15,11.77,2.17,10.95,8.37-.27,2.01-1.36,3.5-2.55,5.05-1.01,1.31-2.02,2.62-3.03,3.93-.59.77-.35,2.09.2,2.78.68.85,1.59,1.05,2.63.9,3.21-.48,7.62-1.15,10.23,1.3s2.5,7.27,2.5,10.56c0,3-.84,7.24-4.36,7.33-.87.02-1.52-.62-2.43-1.26l-2.39-1.68c-1.7-1.2-3.6.46-3.76,2.16-.53,5.5-3.78,10.74-6.92,15.14-1.4,1.96-3.08,3.8-5.18,5.01-1.8,1.03-3.57.99-5.59.54-1.01-.22-2-.51-2.97-.85-.35-.12-.69-.25-1.03-.38-.15-.06-.31-.12-.46-.19.63.26.19.08.06.02-1.71-.73-2.84-.01-4.09,1.13-.82.76-1.76,1.42-2.77,1.9-4.5,2.11-10.68,1.73-15.14-.25-5.01-2.23-8.68-6.73-9.64-12.14-.24-1.33-1.87-2.08-3.08-1.75l-2.33.64,1.93.25c-.24-.16-.38-.3-.51-.49-.09-.13-.17-.28-.25-.42-.37-.65.12.41-.14-.3-.14-.39-.25-.79-.34-1.2-.05-.25-.1-.5-.14-.75-.01-.07-.12-.77-.06-.34-.27-1.92-.34-3.94-1.33-5.66-1.29-2.23-3.46-2.47-5.79-2.6-2.05-.12-3.97-.7-5.63-1.72-2.94-1.81-4.82-5.03-5.83-8.37-.26-.87-.48-1.76-.65-2.66-.07-.39-.14-.79-.2-1.18.08.56-.02-.2-.03-.26-.02-.22-.05-.45-.07-.67-.17-2-.09-3.95.48-5.89,1.45-4.92,5.69-9.41,11.07-9.31,1.13.02,2.08-.8,2.41-1.84l.86-2.72c.41-1.31.68-2.14.27-3.56-.94-3.26.1-6.65,1.95-9.39,4.64-6.83,13.94-7.44,21.38-6.46,1.34.18,2.5-1.28,2.5-2.5,0-1.5-1.16-2.32-2.5-2.5h0Z"/>
      </g>
      <g>
        <path class="cls-2" d="M551.13,1167.39c-3.14,7.2-2.74,18.44-2.88,24.58.12,1.85,1.49,4.18,3.18,4.87,1.41.7,2.67.84,4.39.85,3.79.02,7.35-2.07,8.98-5.5.89-1.88,1.42-3.93,2-5.77.57-2.62,1.53-6.66,1.94-10.77-5.46-3.9-11.28-7.15-17.61-8.26Z"/>
        <path class="cls-1" d="M564.2,1206.75c-.98.1-1.66,1.02-1.46,1.98.23,1.12.72,2.51,1.76,3.82,2.35,2.95,5.87,3.44,7.72,3.47.7.01,1.37-.28,1.81-.83,2.98-3.79,7.27-6.74,12.13-9.22.74-.38.4-1.5-.42-1.41-7.18.73-14.36,1.47-21.53,2.2Z"/>
        <path class="cls-4" d="M562.95,1182.16c.42,3.93-4.72,5.83-5.73,1.49-.7-2.11.91-4.56,3.04-4.73,1.31.64,2.97,1.55,2.69,3.23Z"/>
      </g>
      <g>
        <path class="cls-2" d="M594.05,1168.92c3.14,7.2,2.74,18.44,2.88,24.58-.12,1.85-1.49,4.18-3.18,4.87-1.79.89-3.65,1.07-5.44.48-.81-.27-1.66-.38-2.49-.53-4.33-.78-6.28-6.64-7.44-10.37-.57-2.62-1.53-6.66-1.94-10.77,5.46-3.9,11.28-7.15,17.61-8.26Z"/>
        <path class="cls-4" d="M582.23,1183.69c-.42,3.93,4.72,5.83,5.73,1.49.7-2.11-.91-4.56-3.04-4.73-1.31.64-2.97,1.55-2.69,3.23Z"/>
      </g>
    </g>
    <path class="cls-3" d="M577.75,1168.54c3.22-3.79,6.65-7.39,10.27-10.81.95-.9.98-2.64,0-3.54s-2.52-.96-3.54,0c-3.62,3.41-7.05,7.02-10.27,10.81-.85.99-1.05,2.57,0,3.54.93.86,2.63,1.06,3.54,0h0Z"/>
    <path class="cls-3" d="M567.58,1162.93c-.87-.48-1.71-1.01-2.52-1.58-.2-.14-.4-.29-.6-.44-.43-.32.46.36.03.03-.08-.06-.16-.12-.23-.19-.41-.33-.8-.67-1.19-1.02-.73-.67-1.43-1.37-2.09-2.12-.33-.37-.64-.76-.95-1.14-.19-.24.33.45.07.09-.07-.1-.15-.2-.22-.3-.16-.22-.32-.44-.47-.67-.74-1.08-2.23-1.67-3.42-.9-1.07.69-1.69,2.27-.9,3.42,2.58,3.75,5.96,6.91,9.96,9.12,1.14.63,2.78.31,3.42-.9s.32-2.74-.9-3.42h0Z"/>
  </g>
</svg>